<?xml version="1.0" encoding="utf-8"?>
<!-- Generator: Adobe Illustrator 16.0.0, SVG Export Plug-In . SVG Version: 6.00 Build 0)  -->
<!DOCTYPE svg PUBLIC "-//W3C//DTD SVG 1.1//EN" "http://www.w3.org/Graphics/SVG/1.1/DTD/svg11.dtd">
<svg version="1.1" xmlns="http://www.w3.org/2000/svg" xmlns:xlink="http://www.w3.org/1999/xlink" x="0px" y="0px" width="800px"
	 height="800px" viewBox="0 0 800 800" enable-background="new 0 0 800 800" xml:space="preserve">
<g id="Fundo">
	<rect x="0" width="800" height="800"/>
</g>
<g id="Ponta">
	<g>
		
			<image overflow="visible" opacity="0.45" width="541" height="929" xlink:href="A1939217.png"  transform="matrix(1 0 0 1 129.5002 -64.5)">
		</image>
		<g>
			<g>
				<path fill="#E0E0E0" d="M464.384,178.108H334.833c0,183.45-22.608,238.224-46.083,269.87
					c-23.475,31.633,8.692,53.564,8.692,53.564c48.671,30.131,79.47,137.063,85.741,160.538
					c-7.147,5.301-11.832,13.72-11.832,23.297c0,14.231,10.236,26.021,23.724,28.536l-0.146-47.18l-0.031-9.88l-0.5-164.316
					l-27.222-27.221h64.874l-27.21,27.21l0.501,164.272l0.03,9.942l0.146,47.212c13.625-2.409,23.997-14.253,23.997-28.566
					c0-10.203-5.279-19.146-13.23-24.33c17.569-69.914,61.858-133.214,88.099-157.764c26.949-25.217,10.433-46.72,10.433-46.72
					C460.031,368.11,464.384,178.108,464.384,178.108z"/>
				<path fill="#E0E0E0" d="M324.576,86.044v24.34h-15.42c-14.648,0-26.521,11.874-26.521,26.521s11.874,26.521,26.521,26.521
					h182.47c14.647,0,26.521-11.874,26.521-26.521s-11.874-26.521-26.521-26.521h-22.933v-24.34H324.576z"/>
			</g>
		</g>
	</g>
</g>
<g id="Brilho">
	<g>
		
			<image overflow="visible" opacity="0.45" width="789" height="687" xlink:href="A1939212.png"  transform="matrix(1 0 0 1 5.5002 56.5)">
		</image>
		<g>
			<g>
				<path fill="#E0E0E0" d="M543.1,261.85l71.646-71.646c1.367-1.367,1.367-3.583,0-4.95c-1.367-1.367-3.582-1.367-4.949,0
					L538.151,256.9C539.829,258.521,541.479,260.171,543.1,261.85z"/>
				<path fill="#E0E0E0" d="M297.514,229.491c1.997-1.203,4.02-2.367,6.062-3.5l-88.17-152.715
					c-0.966-1.674-3.106-2.247-4.781-1.281c-1.674,0.967-2.248,3.107-1.281,4.781L297.514,229.491z"/>
				<path fill="#E0E0E0" d="M502.486,229.492l88.17-152.716c0.966-1.674,0.393-3.814-1.281-4.781
					c-1.673-0.966-3.814-0.393-4.781,1.281l-88.17,152.715C498.465,227.125,500.489,228.289,502.486,229.492z"/>
				<path fill="#E0E0E0" d="M693.35,321.397c-0.5-1.867-2.416-2.974-4.287-2.475l-97.816,26.21c0.642,2.238,1.235,4.496,1.8,6.765
					l97.829-26.213C692.742,325.184,693.85,323.265,693.35,321.397z"/>
				<path fill="#E0E0E0" d="M689.971,481.198c1.546,0,2.96-1.031,3.379-2.595c0.5-1.867-0.607-3.787-2.475-4.287l-97.83-26.213
					c-0.563,2.27-1.158,4.526-1.799,6.765l97.816,26.21C689.366,481.159,689.671,481.198,689.971,481.198z"/>
				<path fill="#E0E0E0" d="M106.65,478.604c0.419,1.563,1.833,2.595,3.378,2.595c0.3,0,0.605-0.039,0.908-0.12l97.816-26.21
					c-0.641-2.238-1.235-4.495-1.799-6.765l-97.829,26.213C107.258,474.817,106.15,476.737,106.65,478.604z"/>
				<path fill="#E0E0E0" d="M574.009,303.578l152.715-88.17c1.674-0.967,2.247-3.107,1.281-4.781
					c-0.967-1.674-3.109-2.247-4.781-1.281l-152.716,88.171C571.711,299.513,572.875,301.536,574.009,303.578z"/>
				<path fill="#E0E0E0" d="M106.649,321.398c-0.5,1.867,0.608,3.786,2.475,4.287l97.829,26.213c0.563-2.27,1.158-4.527,1.799-6.765
					l-97.816-26.209C109.072,318.424,107.15,319.53,106.649,321.398z"/>
				<path fill="#E0E0E0" d="M256.899,261.849c1.621-1.679,3.271-3.329,4.95-4.949l-71.647-71.647c-1.366-1.365-3.583-1.367-4.95,0
					c-1.367,1.367-1.367,3.583,0,4.949L256.899,261.849z"/>
				<path fill="#E0E0E0" d="M726.724,584.593l-152.716-88.17c-1.134,2.042-2.297,4.065-3.5,6.063l152.716,88.17
					c0.551,0.318,1.153,0.47,1.747,0.47c1.209,0,2.386-0.628,3.034-1.751C728.972,587.7,728.398,585.56,726.724,584.593z"/>
				<path fill="#E0E0E0" d="M543.1,538.15c-1.621,1.679-3.271,3.328-4.949,4.949l71.646,71.646c0.684,0.684,1.579,1.025,2.475,1.025
					s1.791-0.342,2.475-1.025c1.367-1.366,1.367-3.583,0-4.949L543.1,538.15z"/>
				<path fill="#E0E0E0" d="M775.247,396.5H598.871c0.02,1.166,0.044,2.33,0.044,3.5s-0.024,2.335-0.044,3.5h176.376
					c1.933,0,3.5-1.567,3.5-3.5C778.747,398.067,777.18,396.5,775.247,396.5z"/>
				<path fill="#E0E0E0" d="M73.275,215.408l152.714,88.169c1.134-2.042,2.298-4.065,3.501-6.062l-152.715-88.17
					c-1.673-0.965-3.814-0.392-4.781,1.281C71.028,212.301,71.601,214.441,73.275,215.408z"/>
				<path fill="#E0E0E0" d="M502.485,570.509c-1.997,1.203-4.021,2.366-6.063,3.501l88.17,152.714
					c0.648,1.123,1.825,1.751,3.034,1.751c0.594,0,1.196-0.151,1.747-0.47c1.674-0.967,2.248-3.107,1.281-4.781L502.485,570.509z"/>
				<path fill="#E0E0E0" d="M225.99,496.424L73.276,584.595c-1.674,0.967-2.248,3.107-1.281,4.781
					c0.648,1.123,1.825,1.751,3.035,1.751c0.594,0,1.195-0.151,1.747-0.47l152.715-88.171
					C228.288,500.489,227.125,498.466,225.99,496.424z"/>
				<path fill="#E0E0E0" d="M201.083,400c0-1.17,0.024-2.334,0.044-3.499l-176.376,0c-1.933,0-3.5,1.567-3.5,3.5s1.567,3.5,3.5,3.5
					h176.376C201.108,402.336,201.083,401.171,201.083,400z"/>
				<path fill="#E0E0E0" d="M256.9,538.151l-71.647,71.647c-1.367,1.366-1.367,3.583,0,4.949c0.683,0.684,1.579,1.025,2.475,1.025
					s1.792-0.342,2.475-1.025l71.647-71.646C260.171,541.48,258.521,539.83,256.9,538.151z"/>
				<path fill="#E0E0E0" d="M297.516,570.51l-88.17,152.716c-0.966,1.674-0.393,3.814,1.281,4.781
					c0.551,0.318,1.153,0.47,1.747,0.47c1.209,0,2.386-0.628,3.035-1.751l88.17-152.715
					C301.536,572.876,299.513,571.713,297.516,570.51z"/>
			</g>
		</g>
	</g>
</g>
</svg>
