<?xml version="1.0" encoding="utf-8"?>
<!-- Generator: Adobe Illustrator 16.0.0, SVG Export Plug-In . SVG Version: 6.00 Build 0)  -->
<!DOCTYPE svg PUBLIC "-//W3C//DTD SVG 1.1//EN" "http://www.w3.org/Graphics/SVG/1.1/DTD/svg11.dtd">
<svg version="1.1" id="Layer_1" xmlns="http://www.w3.org/2000/svg" xmlns:xlink="http://www.w3.org/1999/xlink" x="0px" y="0px"
	 width="61px" height="453px" viewBox="0 0 61 453" enable-background="new 0 0 61 453" xml:space="preserve">
<path fill="#DEDFDF" d="M16.029,445.364c0.59-0.582,1.217-1.111,1.862-1.612c-2.325,0.712-6.166,1.593-9.722,1.063
	c1.048,0.335,2.178,0.549,3.415,0.549H16.029z M1.485,433.42l-1.173-4.364v9.267c0.246,0.38,0.532,0.798,0.867,1.238
	C0.93,438.153,0.743,435.849,1.485,433.42 M39.092,448.875H38.18c-2.041,1.824-4.725,2.944-7.679,2.944s-5.641-1.12-7.682-2.944
	H21.91c0.274,0.273,0.56,0.533,0.858,0.779c0.053-0.017,0.106-0.032,0.166-0.032c0.31,0,0.562,0.252,0.562,0.563
	c0,0-0.003,0.01-0.003,0.014c1.984,1.406,4.398,2.24,7.008,2.24c2.608,0,5.022-0.834,7.005-2.239c0-0.004-0.002-0.009-0.002-0.009
	c0-0.315,0.252-0.567,0.561-0.567c0.062,0,0.113,0.017,0.166,0.032C38.529,449.408,38.816,449.148,39.092,448.875 M60.688,439.646
	v1.835c-1.965,2.092-6.356,6.021-12.559,7.395h-8.363c-0.313,0.339-0.643,0.659-0.992,0.963h4.949v0.035
	c0.238,0,0.465-0.027,0.699-0.035h8.08l0.723-0.963h-3.164c5.027-1.587,8.693-4.703,10.627-6.679v2.531c0,0-3.646,2.171-4.576,4.146
	h-1.948l-1.285,1.713h-7.293c-2.823,0.356-6.388,1.018-8.069,2.185c0,0-1.199,0.727-1.199-0.462c0-0.727,2.74-1.349,4.865-1.723
	h-2.724c-0.103,0.1-0.237,0.16-0.394,0.16c-0.119,0-0.221-0.046-0.313-0.108c-2.057,1.444-4.555,2.301-7.251,2.301
	c-2.698,0-5.196-0.855-7.253-2.301c-0.091,0.063-0.195,0.108-0.313,0.108c-0.154,0-0.289-0.063-0.392-0.16h-2.724
	c2.125,0.374,4.865,0.996,4.865,1.723c0,1.188-1.199,0.462-1.199,0.462c-1.685-1.167-5.247-1.827-8.07-2.185H8.122l-1.282-1.711
	H4.888c-0.93-1.979-4.576-4.146-4.576-4.146v-2.533c1.934,1.977,5.602,5.094,10.631,6.68H7.776l0.721,0.961h8.08
	c0.236,0.008,0.46,0.035,0.699,0.035v-0.035h4.952c-0.35-0.303-0.679-0.624-0.992-0.961H12.88
	c-6.202-1.371-10.601-5.304-12.568-7.396v-1.834c1.983,2.732,5.705,6.468,11.272,6.468h12.419c0.135,0.243,0.384,0.414,0.68,0.414
	c0.434,0,0.788-0.354,0.788-0.789s-0.354-0.788-0.788-0.788c-0.296,0-0.545,0.171-0.68,0.413h-6.859
	c3.667-3.34,8.366-5.188,13.355-5.188c4.987,0,9.687,1.85,13.356,5.188h-6.859c-0.137-0.242-0.385-0.413-0.682-0.413
	c-0.435,0-0.787,0.354-0.787,0.788c0,0.436,0.354,0.789,0.787,0.789c0.297,0,0.545-0.171,0.682-0.414h12.418
	C54.982,446.114,58.705,442.378,60.688,439.646 M59.818,439.564c0.334-0.442,0.623-0.861,0.869-1.243v-9.271l-1.174,4.368
	C60.256,435.852,60.068,438.158,59.818,439.564 M49.414,445.364c1.236,0,2.367-0.213,3.416-0.549
	c-3.555,0.53-7.395-0.351-9.721-1.063c0.646,0.5,1.271,1.03,1.863,1.611L49.414,445.364L49.414,445.364z M49.416,7.635h-4.445
	c-0.59,0.582-1.217,1.112-1.863,1.613c2.326-0.711,6.166-1.592,9.724-1.063C51.781,7.85,50.652,7.635,49.416,7.635 M59.514,19.581
	l1.174,4.364v-9.267c-0.246-0.38-0.533-0.798-0.867-1.238C60.068,14.846,60.256,17.151,59.514,19.581 M38.23,3.345
	c-0.053,0.017-0.105,0.033-0.166,0.033c-0.31,0-0.562-0.252-0.562-0.562c0-0.005,0.002-0.009,0.002-0.014
	c-1.983-1.406-4.397-2.24-7.007-2.24c-2.609,0-5.023,0.834-7.006,2.239c0,0.005,0.003,0.01,0.003,0.015
	c0,0.31-0.252,0.562-0.562,0.562c-0.06,0-0.113-0.016-0.166-0.033c-0.3,0.246-0.586,0.507-0.861,0.78h0.912
	c2.041-1.825,4.726-2.944,7.68-2.944S36.139,2.3,38.18,4.125h0.909C38.814,3.852,38.529,3.591,38.23,3.345 M50.057,4.124h3.166
	l-0.721-0.96h-8.08c-0.234-0.008-0.459-0.036-0.699-0.036v0.036h-4.951c0.351,0.301,0.679,0.624,0.992,0.96h8.355
	c6.201,1.372,10.602,5.303,12.568,7.396v1.834c-1.982-2.733-5.705-6.469-11.271-6.469h-12.42c-0.135-0.242-0.385-0.413-0.68-0.413
	c-0.435,0-0.789,0.354-0.789,0.788c0,0.435,0.354,0.788,0.789,0.788c0.295,0,0.545-0.171,0.68-0.413h6.859
	c-3.668,3.341-8.367,5.19-13.354,5.19c-4.989,0-9.688-1.849-13.356-5.19h6.859c0.136,0.242,0.384,0.413,0.681,0.413
	c0.434,0,0.787-0.354,0.787-0.788c0-0.434-0.354-0.788-0.787-0.788c-0.297,0-0.545,0.171-0.681,0.413H11.585
	c-5.568,0-9.291,3.738-11.273,6.47v-1.834C2.277,9.428,6.67,5.499,12.871,4.125h8.362c0.314-0.338,0.644-0.66,0.992-0.962h-4.949
	V3.127c-0.238,0-0.464,0.028-0.699,0.036h-8.08L7.775,4.125h3.165C5.911,5.711,2.245,8.83,0.312,10.804V8.272
	c0,0,3.646-2.17,4.576-4.147h1.95l1.284-1.712h7.293c2.824-0.357,6.386-1.017,8.07-2.184c0,0,1.199-0.727,1.199,0.461
	c0,0.726-2.74,1.348-4.865,1.723h2.724c0.103-0.099,0.237-0.161,0.392-0.161c0.118,0,0.221,0.045,0.313,0.109
	c2.056-1.445,4.553-2.3,7.251-2.3c2.696,0,5.194,0.855,7.253,2.3c0.09-0.063,0.193-0.109,0.313-0.109
	c0.154,0,0.291,0.062,0.394,0.161h2.724c-2.125-0.375-4.865-0.997-4.865-1.723c0-1.188,1.199-0.461,1.199-0.461
	c1.684,1.167,5.246,1.827,8.069,2.184h7.293l1.283,1.71h1.95c0.931,1.979,4.576,4.147,4.576,4.147v2.532
	C58.754,8.828,55.086,5.709,50.057,4.124 M59.016,19.5c0.945-3.025,0.359-5.933,0.104-6.927c-0.888-1.035-1.992-2.104-3.341-2.985
	c-4.862-2.354-11.989-0.092-14.047,0.653c-3.315,2.163-7.184,3.333-11.23,3.333c-4.051,0-7.918-1.17-11.234-3.334
	c-2.062-0.745-9.203-3.011-14.064-0.642c-1.338,0.877-2.438,1.939-3.319,2.969C1.63,13.556,1.041,16.473,1.986,19.5l0.023,0.07
	l-0.02,0.069L0.314,25.87v401.261l1.694,6.298l-0.023,0.069c-0.944,3.025-0.359,5.934-0.102,6.928
	c0.885,1.035,1.992,2.104,3.339,2.983c4.864,2.354,11.991,0.093,14.047-0.651c3.317-2.163,7.184-3.333,11.232-3.333
	c4.05,0,7.917,1.17,11.233,3.334c2.063,0.745,9.203,3.011,14.063,0.643c1.339-0.877,2.438-1.938,3.318-2.97
	c0.256-0.988,0.846-3.905-0.101-6.934l-0.022-0.069l0.021-0.068l1.676-6.23V25.869l-1.693-6.298L59.016,19.5z M1.181,13.436
	c-0.335,0.442-0.623,0.86-0.869,1.242v9.271l1.174-4.368C0.744,17.148,0.931,14.841,1.181,13.436 M8.169,8.185
	c1.048-0.336,2.179-0.55,3.416-0.55h4.442c0.591,0.581,1.217,1.112,1.862,1.612C15.564,8.535,11.723,7.654,8.169,8.185"/>
<path fill="#FFFFFF" d="M4.632,36.506c0,0,2.231,11.25,1.5,21.5c0,0-3.125,3.125,0.25,8.187l-0.28,5.472h24.396h24.396l-0.281-5.472
	c3.375-5.062,0.25-8.187,0.25-8.187c-0.729-10.25,1.5-21.5,1.5-21.5l-1.438-1.062c0.313-0.563,1.1-4.029,1.1-4.029L55.074,19.87
	c-2.854,1.177-4.693-3.139-4.693-3.139H30.499H10.616c0,0-1.839,4.316-4.693,3.139L4.972,31.415c0,0,0.785,3.466,1.097,4.029
	L4.632,36.506z"/>
<path fill="#FFFFFF" d="M30.499,59.563c6.731,0,12.208,3.695,12.208,8.238s-5.477,8.24-12.208,8.24
	c-6.73,0-12.208-3.697-12.208-8.24C18.292,63.257,23.769,59.563,30.499,59.563"/>
<path fill="#DEDFDF" d="M30.499,77.29c7.435,0,13.458-4.249,13.458-9.489c0-5.24-6.023-9.489-13.458-9.489
	c-7.433,0-13.458,4.249-13.458,9.489C17.042,73.041,23.066,77.29,30.499,77.29 M30.499,74.79c-5.938,0-10.957-3.201-10.957-6.989
	c0-3.788,5.019-6.989,10.957-6.989c5.938,0,10.958,3.201,10.958,6.989C41.457,71.589,36.438,74.79,30.499,74.79"/>
<path d="M6.65,48.31c0.033-2.945-0.061-8.675-0.576-12.16c-0.328,0.3-0.628,0.533-0.839,0.684C5.824,38.971,6.296,44.587,6.65,48.31
	 M6.649,71.126h4.711c-1.553-0.932-3.144-1.647-4.553-1.816C6.745,70.071,6.691,70.692,6.649,71.126 M6.876,68.388
	c0.389,0.046,0.781,0.118,1.186,0.227c-0.364-0.358-0.743-0.764-1.117-1.202C6.923,67.752,6.9,68.083,6.876,68.388 M17.028,75.402
	c-1.265,0.002-2.476,0.107-3.338,0.398c1.824,0.748,4.108,1.433,4.803,1.042c0.018-0.01,0.035-0.021,0.049-0.033
	C18.266,76.538,17.736,76.033,17.028,75.402 M30.499,76.586c4.573,0,8.579-1.672,10.831-4.169c0.182-0.202,0.354-0.409,0.514-0.619
	c0.018-0.023,0.031-0.047,0.047-0.069c0.146-0.196,0.283-0.395,0.406-0.601c0.613-1.027,0.957-2.15,0.957-3.327
	c0-4.843-5.723-8.785-12.755-8.785c-7.031,0-12.754,3.942-12.754,8.785c0,1.177,0.344,2.3,0.957,3.327
	c0.123,0.206,0.26,0.405,0.407,0.603c0.015,0.022,0.03,0.044,0.047,0.067c0.16,0.21,0.331,0.417,0.511,0.619
	C21.919,74.914,25.927,76.586,30.499,76.586 M42.457,76.81c0.014,0.012,0.031,0.023,0.049,0.033c0.693,0.391,2.98-0.294,4.803-1.042
	c-0.861-0.291-2.072-0.396-3.338-0.398C43.264,76.033,42.732,76.538,42.457,76.81 M49.639,71.126h4.711
	c-0.041-0.434-0.098-1.055-0.156-1.816C52.783,69.479,51.193,70.194,49.639,71.126 M52.938,68.615
	c0.402-0.109,0.797-0.181,1.185-0.227c-0.021-0.305-0.045-0.636-0.067-0.975C53.68,67.852,53.301,68.257,52.938,68.615 M54.35,48.31
	c0.354-3.722,0.824-9.338,1.414-11.476c-0.211-0.151-0.512-0.384-0.84-0.684C54.408,39.634,54.316,45.364,54.35,48.31 M5.401,68.257
	L5.4,68.259c0.055,0,0.121,0.004,0.181,0.008c0.052-0.733,0.106-1.562,0.157-2.47c-0.75-1.167-1.329-2.48-1.451-3.868
	c-0.151-1.724,0.426-3.321,1.699-4.754c0-0.252-0.003-0.51-0.005-0.767c0,0-0.907-16.929-1.74-19.634l-0.107-0.346l0.31-0.191
	c0.014-0.009,0.736-0.468,1.445-1.227c0,0,0.746-0.667,1.022-1.471c0.306-0.657,0.461-1.404,0.274-2.21
	c-0.031-0.072-0.379-0.891-0.733-1.948l-0.169,1.876c0.176,0.517,0.326,1.07,0.467,1.636c-0.197,0.403-0.568,1.04-1.028,1.331
	c-0.195-0.949-0.419-1.862-0.703-2.679l-0.047-0.13l0.812-9.054c-0.01,1.353,0.912,4.294,0.912,4.294
	c0.305,1.85,1.342,4.289,1.376,4.382c0.363,1.538-0.166,2.859-0.887,3.868c1.083,6.091,0.028,27.819-0.108,30.346
	c-0.503-0.638-0.959-1.67-1.206-2.284c0.051-1.316,0.087-2.739,0.105-4.213c-0.591,0.969-0.85,2.003-0.754,3.09
	c0.109,1.258,0.662,2.471,1.377,3.557c0.036,0.053,0.068,0.101,0.101,0.149c0.097,0.142,0.197,0.281,0.298,0.42
	c0.023,0.03,0.035,0.046,0.035,0.046v0.002c1.578,2.116,3.623,3.611,3.778,3.722c0.776,0.409,1.546,0.886,2.291,1.386h0.012
	l0.165,0.119c0.52,0.353,1.024,0.719,1.509,1.087l0.118,0.085h-0.007c0.932,0.711,1.784,1.422,2.485,2.04
	c0.913,0.01,1.811,0.073,2.602,0.148c-0.825-0.659-1.532-1.393-2.096-2.188h-1.637h-0.606l-1.634-1.291h1.522
	c-0.344-1.019-0.523-1.93-0.579-2.736c-0.541,0.736-1.695,1.846-3.424,1.182c0.392,0.112,2.002,0.347,3.448-2.688l0.004,0.016
	c0.289-2.406,1.657-3.498,1.657-3.498c-1.42,2.791-1.091,5.268-0.63,6.764c0.008,0.009,0.297,0.41,0.878,0.419
	c-0.352-0.887-0.551-1.818-0.551-2.785c0-5.621,6.354-10.191,14.161-10.191c7.808,0,14.161,4.57,14.161,10.191
	c0,0.967-0.199,1.898-0.549,2.785c0.58-0.009,0.867-0.41,0.877-0.419c0.461-1.496,0.791-3.973-0.629-6.764
	c0,0,1.367,1.092,1.654,3.498l0.004-0.016c1.446,3.034,3.057,2.799,3.448,2.688c-1.729,0.664-2.883-0.446-3.424-1.182
	c-0.056,0.806-0.233,1.717-0.58,2.736h1.522l-1.635,1.291h-0.623h-1.619c-0.563,0.795-1.271,1.529-2.096,2.188
	c0.789-0.075,1.688-0.138,2.602-0.148c0.701-0.618,1.554-1.329,2.484-2.04h-0.006l0.117-0.085c0.486-0.368,0.988-0.734,1.51-1.087
	l0.164-0.119h0.014c0.744-0.5,1.515-0.977,2.291-1.386c0.152-0.111,2.197-1.606,3.775-3.722v-0.002c0,0,0.014-0.016,0.035-0.046
	c0.102-0.139,0.201-0.278,0.299-0.42c0.033-0.048,0.066-0.096,0.102-0.149c0.715-1.086,1.267-2.299,1.377-3.557
	c0.097-1.087-0.162-2.121-0.754-3.09c0.019,1.474,0.054,2.897,0.104,4.213c-0.246,0.614-0.703,1.646-1.205,2.284
	c-0.137-2.527-1.19-24.255-0.106-30.346c-0.722-1.009-1.25-2.33-0.887-3.868c0.03-0.093,1.069-2.532,1.375-4.382
	c0,0,0.922-2.941,0.909-4.294l0.813,9.054l-0.047,0.13c-0.283,0.817-0.508,1.73-0.703,2.679c-0.459-0.291-0.83-0.928-1.028-1.331
	c0.142-0.566,0.291-1.119,0.467-1.636l-0.168-1.876c-0.354,1.057-0.7,1.876-0.731,1.948c-0.188,0.806-0.033,1.553,0.272,2.21
	c0.276,0.804,1.021,1.471,1.021,1.471c0.711,0.759,1.433,1.218,1.445,1.227l0.311,0.191l-0.106,0.346
	c-0.832,2.705-1.739,19.634-1.739,19.634c-0.002,0.257-0.004,0.515-0.004,0.767c1.271,1.433,1.85,3.03,1.696,4.754
	c-0.123,1.388-0.701,2.701-1.448,3.868c0.049,0.909,0.104,1.737,0.153,2.47c0.063-0.004,0.127-0.008,0.185-0.008l-0.002-0.002
	c0.979-0.081,1.836,0.462,1.42,1.146c-0.416,0.686-1.127,0.76-1.127,0.76s0.27-0.171,0.489-0.563
	c0.111-0.197,0.024-0.288-0.09-0.333c-0.082-0.014-0.162-0.028-0.25-0.036h-0.002c-0.181-0.015-0.369-0.019-0.552-0.017
	c0.115,1.52,0.211,2.438,0.218,2.488l0.075,0.715h-6.885h-1.213c-0.963,0.687-1.867,1.408-2.652,2.067
	c2.843-0.025,4.628,1.391,4.628,1.391l-1.812,0.718v-0.001c-0.873,0.37-2.258,0.897-3.514,1.145c0.008,0.002,0.02,0.005,0.02,0.005
	c-0.076,0.014-0.143,0.024-0.219,0.037c-0.055,0.01-0.107,0.021-0.16,0.028c-6.348,1.099-7.012,0.494-7.012,0.494
	c2.732,0,4.453-1.781,4.453-1.781l0.158-0.159c0.064-0.063,0.406-0.407,0.953-0.92c-0.404,0.022-0.801,0.05-1.185,0.082h-0.006
	c-0.099,0.009-0.188,0.019-0.285,0.028c-0.188,0.022-0.465,0.067-0.774,0.147c-0.18,0.045-0.375,0.104-0.574,0.177
	c-0.031,0.011-0.063,0.022-0.092,0.035c-0.207,0.079-0.42,0.174-0.627,0.289c-0.025,0.013-0.047,0.031-0.07,0.046
	c-0.174,0.1-0.34,0.222-0.504,0.354c-0.049,0.042-0.1,0.084-0.148,0.128c-0.178,0.166-0.35,0.347-0.492,0.563l-5.186,0.592
	l0.041-0.017c-0.695,0.077-1.4,0.129-2.126,0.129c-0.722,0-1.429-0.052-2.125-0.129l0.041,0.017l-5.188-0.592
	c-0.145-0.218-0.316-0.401-0.498-0.567c-0.047-0.044-0.096-0.085-0.146-0.128c-0.167-0.135-0.341-0.26-0.519-0.365
	c-0.021-0.011-0.039-0.025-0.059-0.036c-0.209-0.115-0.42-0.209-0.627-0.288c-0.039-0.015-0.078-0.029-0.115-0.042
	c-0.196-0.069-0.392-0.131-0.567-0.174c-0.302-0.073-0.565-0.117-0.75-0.139c-0.097-0.009-0.188-0.019-0.286-0.028h-0.005
	c-0.384-0.032-0.781-0.06-1.185-0.082c0.547,0.513,0.89,0.857,0.953,0.92l0.157,0.159c0,0,1.722,1.781,4.452,1.781
	c0,0-0.662,0.605-7.009-0.494c-0.054-0.007-0.107-0.018-0.161-0.028c-0.076-0.013-0.142-0.023-0.218-0.037
	c0,0,0.011-0.003,0.019-0.005c-1.257-0.248-2.641-0.775-3.514-1.145l0.001,0.001l-1.81-0.718c0,0,1.783-1.416,4.626-1.391
	c-0.784-0.659-1.691-1.38-2.652-2.067h-1.23H5.218l0.076-0.715c0.006-0.05,0.101-0.968,0.218-2.488
	c-0.184-0.002-0.371,0.002-0.552,0.017H4.958c-0.089,0.008-0.169,0.022-0.251,0.036c-0.113,0.045-0.201,0.136-0.091,0.333
	c0.221,0.392,0.49,0.563,0.49,0.563s-0.709-0.074-1.124-0.76C3.565,68.719,4.422,68.176,5.401,68.257 M6.845,24.988
	C6.204,23.438,5.9,20.149,5.9,20.149l0.023-0.279l0.413-0.128c0.968-0.3,3.725-1.507,3.725-3.063v-0.644h40.878v0.644
	c0,1.556,2.756,2.763,3.723,3.063l0.412,0.128l0.023,0.279c0,0-0.304,3.288-0.943,4.839l-0.289-4.155
	c-1.066-0.391-3.66-1.532-4.141-3.508H11.274c-0.481,1.976-3.074,3.117-4.14,3.508L6.845,24.988z"/>
<path fill="#FFFFFF" d="M4.633,108.335c0,0,2.231,11.25,1.5,21.5c0,0-3.125,3.125,0.25,8.187l-0.28,5.472H30.5h24.396l-0.281-5.472
	c3.375-5.062,0.25-8.187,0.25-8.187c-0.73-10.25,1.5-21.5,1.5-21.5l-1.436-1.062c0.311-0.563,1.098-4.029,1.098-4.029l-0.953-11.545
	c-2.852,1.177-4.691-3.139-4.691-3.139H30.5H10.617c0,0-1.839,4.316-4.693,3.139l-0.951,11.545c0,0,0.785,3.466,1.097,4.029
	L4.633,108.335z"/>
<path fill="#FFFFFF" d="M30.5,131.392c6.73,0,12.207,3.695,12.207,8.238s-5.477,8.24-12.207,8.24c-6.731,0-12.208-3.697-12.208-8.24
	S23.769,131.392,30.5,131.392"/>
<path fill="#DEDFDF" d="M30.5,149.119c7.434,0,13.457-4.249,13.457-9.489c0-5.24-6.023-9.489-13.457-9.489
	c-7.433,0-13.458,4.249-13.458,9.489C17.042,144.87,23.067,149.119,30.5,149.119 M30.5,146.619c-5.94,0-10.958-3.2-10.958-6.989
	c0-3.788,5.018-6.989,10.958-6.989c5.939,0,10.957,3.201,10.957,6.989C41.457,143.419,36.439,146.619,30.5,146.619"/>
<path d="M5.235,108.662c0.211-0.151,0.512-0.384,0.84-0.685c0.514,3.487,0.608,9.216,0.575,12.16
	C6.297,116.417,5.826,110.8,5.235,108.662 M6.808,141.139c1.408,0.168,3.001,0.883,4.552,1.816H6.649
	C6.69,142.521,6.746,141.899,6.808,141.139 M6.946,139.242c0.373,0.437,0.753,0.843,1.116,1.202
	c-0.404-0.109-0.797-0.182-1.184-0.227C6.899,139.911,6.923,139.581,6.946,139.242 M3.981,141.232
	c0.416,0.686,1.126,0.759,1.126,0.759s-0.269-0.17-0.49-0.563c-0.11-0.196-0.022-0.288,0.091-0.332
	c0.082-0.014,0.163-0.029,0.25-0.037H4.96c0.182-0.015,0.368-0.019,0.553-0.017c-0.118,1.521-0.213,2.439-0.217,2.488l-0.077,0.715
	h6.868h1.229h0.221c0.72,0.528,1.195,1.082,0.581,1.368c-1.39,0.645-2.659-0.508-2.659-0.508c1.271,1.642,3.851,1.818,4.282,1.056
	c0.43-0.764-0.859-1.916-0.859-1.916h0.017h0.006l-0.117-0.084c-0.484-0.368-0.988-0.734-1.508-1.087l-0.166-0.119h-0.012
	c-0.746-0.499-1.514-0.976-2.292-1.385c-0.153-0.112-2.199-1.607-3.776-3.723v-0.002c0,0-0.014-0.016-0.034-0.045
	c-0.103-0.14-0.202-0.28-0.3-0.421c-0.033-0.049-0.064-0.097-0.1-0.15c-0.716-1.085-1.268-2.299-1.377-3.555
	c-0.097-1.089,0.163-2.123,0.753-3.091c-0.018,1.474-0.053,2.896-0.104,4.213c0.246,0.613,0.703,1.645,1.205,2.283
	c0.137-2.525,1.191-24.256,0.108-30.346c0.72-1.008,1.249-2.329,0.888-3.867c-0.033-0.093-1.071-2.533-1.377-4.383
	c0,0-0.923-2.941-0.911-4.293l-0.811,9.054l0.044,0.13c0.285,0.817,0.508,1.73,0.706,2.679c0.459-0.291,0.828-0.929,1.027-1.331
	c-0.141-0.566-0.291-1.119-0.468-1.638l0.169-1.875c0.354,1.057,0.703,1.877,0.733,1.948c0.187,0.808,0.034,1.553-0.272,2.211
	c-0.277,0.805-1.023,1.472-1.023,1.472c-0.709,0.758-1.432,1.216-1.448,1.226l-0.308,0.19l0.107,0.346
	c0.833,2.705,1.74,19.633,1.74,19.633c0.002,0.258,0.004,0.516,0.004,0.77c-1.272,1.432-1.85,3.029-1.697,4.753
	c0.122,1.388,0.701,2.7,1.449,3.868c-0.051,0.909-0.103,1.737-0.155,2.47c-0.062-0.004-0.126-0.009-0.183-0.009l0.002-0.002
	C4.423,140.006,3.565,140.549,3.981,141.232 M6.847,96.815C6.204,95.266,5.9,91.978,5.9,91.978L5.925,91.7l0.412-0.129
	c0.967-0.3,3.723-1.506,3.723-3.062v-0.646h40.877v0.646c0,1.556,2.758,2.762,3.725,3.062l0.412,0.129l0.025,0.278
	c0,0-0.306,3.289-0.947,4.838l-0.287-4.154c-1.066-0.39-3.66-1.532-4.141-3.508H11.274c-0.48,1.976-3.074,3.118-4.14,3.508
	L6.847,96.815z M54.924,107.978c0.328,0.301,0.629,0.534,0.84,0.685c-0.59,2.138-1.061,7.754-1.414,11.475
	C54.316,117.193,54.41,111.464,54.924,107.978 M49.639,142.955c1.551-0.933,3.146-1.648,4.553-1.816
	c0.063,0.76,0.117,1.382,0.158,1.816H49.639z M54.055,139.242c0.021,0.339,0.045,0.669,0.066,0.975
	c-0.387,0.045-0.779,0.118-1.184,0.227C53.301,140.085,53.68,139.679,54.055,139.242 M52.928,102.866
	c-0.363,1.538,0.166,2.859,0.887,3.867c-1.084,6.09-0.028,27.821,0.107,30.346c0.502-0.638,0.959-1.67,1.205-2.283
	c-0.051-1.317-0.086-2.739-0.104-4.213c0.59,0.968,0.85,2.002,0.752,3.091c-0.107,1.256-0.66,2.47-1.377,3.555
	c-0.035,0.053-0.066,0.101-0.101,0.15c-0.098,0.141-0.196,0.281-0.299,0.421c-0.021,0.029-0.035,0.045-0.035,0.045v0.002
	c-1.575,2.116-3.623,3.611-3.774,3.723c-0.777,0.409-1.547,0.886-2.293,1.385h-0.013l-0.166,0.119
	c-0.521,0.353-1.022,0.719-1.508,1.087l-0.117,0.084c0,0-1.288,1.152-0.858,1.916c0.43,0.762,3.012,0.586,4.281-1.056
	c0,0-1.271,1.153-2.658,0.508c-0.613-0.286-0.14-0.84,0.58-1.368h0.246h1.213h6.885l-0.078-0.715
	c-0.004-0.049-0.1-0.967-0.217-2.488c0.186-0.002,0.371,0.002,0.553,0.017h0.002c0.088,0.008,0.168,0.023,0.25,0.037
	c0.115,0.044,0.201,0.136,0.092,0.332c-0.221,0.393-0.49,0.563-0.49,0.563s0.709-0.073,1.125-0.759
	c0.416-0.683-0.44-1.226-1.42-1.147l0.002,0.002c-0.057,0-0.121,0.005-0.182,0.009c-0.053-0.733-0.105-1.561-0.156-2.47
	c0.75-1.168,1.328-2.48,1.449-3.868c0.154-1.724-0.424-3.321-1.697-4.753c0-0.254,0.002-0.512,0.004-0.77
	c0,0,0.908-16.928,1.74-19.633l0.107-0.346l-0.309-0.19c-0.017-0.01-0.738-0.468-1.447-1.226c0,0-0.746-0.667-1.023-1.472
	c-0.305-0.658-0.459-1.403-0.271-2.211c0.031-0.071,0.379-0.891,0.732-1.948l0.17,1.875c-0.178,0.519-0.326,1.072-0.469,1.638
	c0.199,0.402,0.568,1.04,1.029,1.331c0.195-0.949,0.42-1.862,0.703-2.679l0.045-0.13l-0.812-9.054
	c0.011,1.352-0.911,4.293-0.911,4.293C53.998,100.333,52.961,102.773,52.928,102.866 M19.668,144.245L19.668,144.245
	c-0.181-0.201-0.353-0.408-0.513-0.619c-0.016-0.022-0.031-0.046-0.047-0.069c-0.146-0.195-0.283-0.394-0.406-0.6
	c-0.613-1.029-0.957-2.15-0.957-3.327c0-4.843,5.723-8.785,12.755-8.785c7.031,0,12.754,3.942,12.754,8.785
	c0,1.177-0.344,2.3-0.957,3.327c-0.123,0.206-0.26,0.405-0.406,0.6c-0.016,0.023-0.029,0.047-0.047,0.069
	c-0.16,0.211-0.332,0.418-0.512,0.619c-2.252,2.497-6.26,4.17-10.832,4.17C25.927,148.416,21.92,146.742,19.668,144.245
	 M40.996,146.446c0.83-0.661,1.545-1.4,2.113-2.201h1.619h0.623l1.633-1.29h-1.521c0.345-1.019,0.522-1.93,0.578-2.736
	c0.541,0.737,1.692,1.845,3.426,1.182c-0.396,0.111-2.002,0.346-3.45-2.687l-0.002,0.014c-0.289-2.403-1.658-3.496-1.658-3.496
	c1.418,2.791,1.092,5.267,0.629,6.763c-0.008,0.011-0.295,0.41-0.875,0.42c0.35-0.887,0.549-1.82,0.549-2.785
	c0-5.621-6.354-10.192-14.16-10.192c-7.808,0-14.161,4.571-14.161,10.192c0,0.965,0.199,1.898,0.549,2.785
	c-0.58-0.01-0.868-0.409-0.876-0.42c-0.462-1.496-0.789-3.972,0.63-6.763c0,0-1.37,1.093-1.658,3.496l-0.004-0.014
	c-1.446,3.033-3.055,2.798-3.448,2.687c1.731,0.663,2.884-0.445,3.424-1.182c0.057,0.806,0.234,1.717,0.579,2.736h-1.521l1.633,1.29
	h0.607h1.636c0.568,0.799,1.277,1.534,2.103,2.194c-0.049,0.028-4.154,2.406-7.303,0.366c0,0,0.928,1.893,3.948,1.778l-0.017,0.004
	c0.044-0.004,0.079-0.002,0.122-0.006c0.024,0,0.047-0.002,0.07-0.004c3.467-0.338,5.084,1.134,5.084,1.134
	c-0.506-1.19-1.494-1.613-2.295-1.754c0.348-0.124,0.709-0.266,1.09-0.433l0.004-0.006c0.805,0.199,1.891,0.633,2.531,1.601
	l5.188,0.592l-0.041-0.017c0.695,0.075,1.4,0.128,2.126,0.128c0.727,0,1.43-0.053,2.125-0.128l-0.041,0.017l5.186-0.592
	c0.64-0.959,1.709-1.393,2.515-1.595c0.381,0.167,0.741,0.309,1.09,0.433c-0.802,0.141-1.789,0.564-2.297,1.754
	c0,0,1.618-1.472,5.088-1.134c0.021,0.002,0.045,0.004,0.067,0.004c0.043,0.004,0.078,0.002,0.121,0.006l-0.016-0.004
	c3.018,0.115,3.947-1.778,3.947-1.778C45.193,148.81,41.188,146.559,40.996,146.446"/>
<path fill="#FFFFFF" d="M4.632,179.681c0,0,2.231,11.25,1.5,21.5c0,0-3.125,3.125,0.25,8.187l-0.28,5.472h24.396h24.396
	l-0.281-5.472c3.375-5.062,0.25-8.187,0.25-8.187c-0.729-10.25,1.5-21.5,1.5-21.5l-1.438-1.062c0.313-0.563,1.1-4.029,1.1-4.029
	l-0.953-11.545c-2.854,1.177-4.692-3.139-4.692-3.139H30.499H10.616c0,0-1.839,4.316-4.693,3.139L4.972,174.59
	c0,0,0.785,3.466,1.097,4.029L4.632,179.681z"/>
<path fill="#FFFFFF" d="M30.499,202.737c6.731,0,12.208,3.695,12.208,8.238s-5.477,8.24-12.208,8.24
	c-6.73,0-12.208-3.697-12.208-8.24C18.292,206.432,23.769,202.737,30.499,202.737"/>
<path fill="#DEDFDF" d="M30.499,220.465c7.435,0,13.458-4.249,13.458-9.489c0-5.24-6.023-9.489-13.458-9.489
	c-7.433,0-13.458,4.249-13.458,9.489C17.042,216.216,23.066,220.465,30.499,220.465 M30.499,217.965
	c-5.939,0-10.957-3.2-10.957-6.989c0-3.788,5.018-6.989,10.957-6.989c5.94,0,10.958,3.201,10.958,6.989
	C41.457,214.765,36.439,217.965,30.499,217.965"/>
<path d="M6.651,191.483c0.033-2.943-0.062-8.674-0.576-12.16c-0.329,0.302-0.629,0.534-0.84,0.685
	C5.825,182.146,6.295,187.762,6.651,191.483 M6.649,214.302h4.711c-1.552-0.934-3.145-1.649-4.553-1.818
	C6.746,213.245,6.69,213.866,6.649,214.302 M6.877,211.562c0.387,0.048,0.781,0.119,1.186,0.228
	c-0.365-0.358-0.744-0.764-1.118-1.202C6.924,210.928,6.901,211.257,6.877,211.562 M19.737,217.583
	c-0.721-0.607-1.338-1.275-1.848-1.992h-1.166C17.285,216.392,18.386,217.641,19.737,217.583 M17.746,210.976
	c0,1.178,0.342,2.299,0.956,3.328c0.123,0.205,0.26,0.404,0.408,0.601c0.015,0.022,0.029,0.045,0.045,0.068
	c0.16,0.21,0.332,0.417,0.514,0.618c2.252,2.497,6.258,4.17,10.831,4.17c4.572,0,8.58-1.673,10.83-4.17
	c0.184-0.201,0.354-0.408,0.514-0.618c0.018-0.023,0.031-0.046,0.047-0.068c0.146-0.197,0.283-0.396,0.406-0.601
	c0.613-1.028,0.957-2.15,0.957-3.328c0-4.843-5.721-8.784-12.754-8.784C23.468,202.192,17.746,206.133,17.746,210.976
	 M43.109,215.591c-0.508,0.717-1.125,1.384-1.844,1.991c1.338,0.042,2.428-1.194,2.985-1.991H43.109z M49.639,214.302h4.711
	c-0.041-0.436-0.098-1.057-0.156-1.818C52.783,212.653,51.191,213.368,49.639,214.302 M52.938,211.79
	c0.404-0.109,0.797-0.18,1.185-0.228c-0.021-0.305-0.045-0.634-0.065-0.974C53.68,211.026,53.301,211.432,52.938,211.79
	 M54.35,191.483c0.354-3.721,0.824-9.337,1.414-11.475c-0.211-0.151-0.51-0.383-0.84-0.685
	C54.41,182.809,54.316,188.54,54.35,191.483 M5.401,211.431v0.002c0.055,0,0.12,0.005,0.179,0.009
	c0.053-0.732,0.107-1.561,0.157-2.469c-0.748-1.168-1.327-2.482-1.45-3.869c-0.152-1.724,0.426-3.321,1.7-4.754
	c0-0.253-0.004-0.511-0.006-0.767c0,0-0.907-16.93-1.739-19.633l-0.108-0.348l0.31-0.191c0.013-0.009,0.736-0.467,1.445-1.225
	c0,0,0.746-0.667,1.023-1.471c0.306-0.658,0.459-1.406,0.273-2.211c-0.03-0.071-0.38-0.892-0.734-1.948l-0.167,1.875
	c0.175,0.518,0.326,1.072,0.467,1.638c-0.198,0.402-0.569,1.038-1.028,1.33c-0.196-0.949-0.42-1.862-0.703-2.678l-0.047-0.132
	l0.811-9.053c-0.01,1.354,0.912,4.293,0.912,4.293c0.306,1.851,1.343,4.289,1.377,4.383c0.363,1.537-0.167,2.859-0.888,3.867
	c1.083,6.091,0.029,27.821-0.109,30.348c-0.501-0.64-0.958-1.67-1.205-2.286c0.051-1.316,0.086-2.738,0.104-4.212
	c-0.59,0.968-0.848,2.003-0.752,3.091c0.109,1.257,0.66,2.471,1.377,3.556c0.035,0.054,0.068,0.101,0.1,0.148
	c0.097,0.143,0.197,0.283,0.298,0.421c0.024,0.03,0.035,0.046,0.035,0.046v0.002c1.578,2.115,3.624,3.611,3.778,3.722
	c0.777,0.409,1.546,0.886,2.292,1.387h0.011l0.166,0.117c0.52,0.355,1.023,0.721,1.507,1.088l0.12,0.084h-0.008h-1.583h-1.23H9.107
	c-0.081,0.522-0.077,2.059,2.581,2.619c0,0,0.381,1.329,4.324,2.255c3.943,0.925,0.811-3.927-0.389-4.874l0.012-0.01l-1.621-1.279
	h1.521c-0.344-1.02-0.523-1.931-0.579-2.737c-0.54,0.737-1.694,1.845-3.424,1.182c0.393,0.111,2.001,0.346,3.448-2.686l0.005,0.014
	c0.289-2.405,1.656-3.497,1.656-3.497c-1.419,2.79-1.091,5.267-0.629,6.763c0.008,0.011,0.295,0.411,0.877,0.42
	c-0.352-0.887-0.551-1.819-0.551-2.785c0-5.62,6.354-10.192,14.162-10.192c7.809,0,14.162,4.572,14.162,10.192
	c0,0.966-0.201,1.898-0.551,2.785c0.58-0.009,0.867-0.409,0.877-0.42c0.461-1.496,0.789-3.973-0.629-6.763
	c0,0,1.367,1.092,1.654,3.497l0.006-0.014c1.444,3.032,3.055,2.797,3.448,2.686c-1.729,0.663-2.885-0.445-3.426-1.182
	c-0.056,0.806-0.233,1.717-0.578,2.737h1.521l-1.633,1.289c-1.197,0.947-4.33,5.799-0.39,4.874c3.942-0.926,4.324-2.255,4.324-2.255
	c2.659-0.56,2.664-2.097,2.582-2.619h-2.974h-1.213H46.1h-0.006l0.117-0.084c0.486-0.367,0.988-0.733,1.51-1.088l0.164-0.117h0.014
	c0.744-0.501,1.515-0.978,2.291-1.387c0.152-0.111,2.199-1.607,3.775-3.722v-0.002c0,0,0.014-0.016,0.035-0.046
	c0.102-0.138,0.203-0.278,0.299-0.421c0.033-0.047,0.066-0.094,0.102-0.148c0.716-1.085,1.267-2.299,1.377-3.556
	c0.095-1.088-0.161-2.123-0.754-3.091c0.019,1.474,0.054,2.896,0.105,4.212c-0.248,0.616-0.705,1.646-1.207,2.286
	c-0.137-2.527-1.189-24.257-0.107-30.348c-0.721-1.008-1.25-2.33-0.889-3.867c0.033-0.094,1.07-2.532,1.377-4.383
	c0,0,0.922-2.939,0.912-4.293l0.813,9.053l-0.047,0.132c-0.283,0.816-0.508,1.729-0.703,2.678c-0.461-0.292-0.83-0.928-1.028-1.33
	c0.142-0.566,0.293-1.12,0.467-1.638l-0.168-1.875c-0.354,1.056-0.7,1.877-0.731,1.948c-0.188,0.805-0.033,1.553,0.272,2.211
	c0.277,0.804,1.021,1.471,1.021,1.471c0.711,0.758,1.433,1.216,1.447,1.225l0.31,0.191l-0.107,0.348
	c-0.831,2.703-1.739,19.633-1.739,19.633c0,0.256-0.004,0.514-0.004,0.767c1.272,1.433,1.85,3.03,1.696,4.754
	c-0.123,1.387-0.7,2.701-1.448,3.869c0.051,0.908,0.104,1.737,0.155,2.469c0.062-0.004,0.125-0.009,0.183-0.009l-0.002-0.002
	c0.979-0.079,1.836,0.463,1.42,1.148c-0.416,0.684-1.125,0.759-1.125,0.759s0.268-0.172,0.487-0.564
	c0.111-0.196,0.024-0.288-0.088-0.331c-0.084-0.014-0.164-0.028-0.252-0.037H56.04c-0.183-0.016-0.369-0.02-0.552-0.018
	c0.117,1.52,0.212,2.44,0.218,2.49l0.075,0.713h-2.565c-1.196,4.562-9.522,6.065-9.522,6.065c-1.525-1.347-3.223-0.944-3.223-0.944
	c1.356-0.721,1.696-2.289,1.696-2.289l-1.883,0.447c-0.806,0.201-1.875,0.636-2.515,1.595l-5.188,0.593l0.043-0.017
	c-0.695,0.075-1.4,0.127-2.125,0.127c-0.724,0-1.43-0.052-2.126-0.127l0.042,0.017l-5.187-0.593
	c-0.646-0.968-1.731-1.404-2.537-1.602v0.007l-1.881-0.447c0,0,0.338,1.568,1.695,2.289c0,0-1.697-0.403-3.223,0.944
	c0,0-8.327-1.503-9.524-6.065h-2.54l0.075-0.713c0.006-0.05,0.101-0.97,0.218-2.49c-0.184-0.002-0.371,0.002-0.552,0.018H4.958
	c-0.088,0.009-0.169,0.023-0.251,0.037c-0.114,0.043-0.201,0.135-0.09,0.331c0.221,0.392,0.49,0.564,0.49,0.564
	s-0.709-0.075-1.126-0.759C3.566,211.894,4.422,211.352,5.401,211.431 M6.846,168.162c-0.641-1.55-0.945-4.838-0.945-4.838
	l0.023-0.279l0.412-0.128c0.968-0.3,3.725-1.506,3.725-3.063v-0.644h40.878v0.644c0,1.557,2.756,2.763,3.723,3.063l0.412,0.128
	l0.025,0.279c0,0-0.306,3.288-0.945,4.838l-0.289-4.154c-1.066-0.392-3.66-1.533-4.141-3.508H11.274
	c-0.481,1.975-3.074,3.116-4.141,3.508L6.846,168.162z"/>
<path fill="#FFFFFF" d="M4.632,251.516c0,0,2.231,11.25,1.5,21.5c0,0-3.125,3.125,0.25,8.188l-0.28,5.472h24.396h24.396
	l-0.281-5.472c3.375-5.063,0.25-8.188,0.25-8.188c-0.729-10.25,1.5-21.5,1.5-21.5l-1.438-1.063c0.313-0.563,1.1-4.028,1.1-4.028
	l-0.953-11.546c-2.854,1.178-4.692-3.139-4.692-3.139H30.499H10.616c0,0-1.839,4.316-4.693,3.139l-0.951,11.546
	c0,0,0.785,3.466,1.097,4.028L4.632,251.516z"/>
<path fill="#FFFFFF" d="M30.499,274.57c6.731,0,12.208,3.695,12.208,8.238s-5.477,8.24-12.208,8.24
	c-6.73,0-12.208-3.697-12.208-8.24S23.769,274.57,30.499,274.57"/>
<path fill="#DEDFDF" d="M30.499,292.299c7.435,0,13.458-4.249,13.458-9.488c0-5.24-6.023-9.488-13.458-9.488
	c-7.433,0-13.458,4.248-13.458,9.488C17.042,288.05,23.066,292.299,30.499,292.299 M30.499,289.799
	c-5.938,0-10.957-3.199-10.957-6.988c0-3.787,5.019-6.988,10.957-6.988c5.938,0,10.958,3.201,10.958,6.988
	C41.457,286.6,36.438,289.799,30.499,289.799"/>
<path d="M5.236,251.844c0.21-0.148,0.511-0.383,0.84-0.686c0.514,3.488,0.607,9.218,0.574,12.162
	C6.297,259.596,5.826,253.982,5.236,251.844 M6.807,284.322c1.409,0.166,3.001,0.881,4.554,1.813H6.65
	C6.69,285.701,6.746,285.08,6.807,284.322 M6.945,282.423c0.374,0.438,0.754,0.845,1.117,1.202
	c-0.404-0.109-0.797-0.182-1.185-0.227C6.9,283.091,6.923,282.764,6.945,282.423 M3.981,284.414
	c0.417,0.686,1.126,0.759,1.126,0.759s-0.268-0.172-0.489-0.563c-0.111-0.197-0.025-0.286,0.09-0.332
	c0.083-0.014,0.163-0.029,0.251-0.037h0.002c0.181-0.016,0.368-0.02,0.55-0.018c-0.117,1.521-0.211,2.438-0.216,2.487l-0.077,0.716
	h4.83c1.45,0.602,4.372,2.106,3.719,4.241c0,0,0.508-0.742,1.182-1.037c0,0-1.064-1.823-3.361-3.204h0.498h1.23h0.262
	c1.49,0.374,2.046,1.284,2.046,1.284c-0.088-0.805-0.749-1.284-0.749-1.284H14.9h0.006l-0.117-0.086
	c-0.485-0.365-0.989-0.73-1.51-1.087l-0.164-0.118h-0.012c-0.746-0.498-1.515-0.978-2.293-1.386
	c-0.154-0.11-2.199-1.606-3.775-3.722v-0.002c0,0-0.014-0.018-0.035-0.047c-0.102-0.138-0.202-0.278-0.299-0.42
	c-0.033-0.049-0.067-0.096-0.101-0.149c-0.716-1.084-1.267-2.298-1.378-3.556c-0.095-1.088,0.164-2.121,0.754-3.09
	c-0.017,1.475-0.054,2.896-0.104,4.211c0.247,0.616,0.703,1.646,1.206,2.285c0.137-2.523,1.191-24.256,0.107-30.348
	c0.721-1.008,1.25-2.329,0.887-3.867c-0.033-0.094-1.07-2.533-1.376-4.383c0,0-0.922-2.939-0.911-4.293l-0.812,9.054l0.046,0.132
	c0.284,0.814,0.508,1.729,0.703,2.68c0.461-0.291,0.83-0.93,1.03-1.331c-0.142-0.567-0.292-1.121-0.469-1.64l0.169-1.875
	c0.353,1.059,0.702,1.879,0.733,1.949c0.188,0.807,0.033,1.551-0.273,2.21c-0.278,0.806-1.023,1.474-1.023,1.474
	c-0.709,0.758-1.431,1.217-1.446,1.224l-0.309,0.192l0.108,0.345c0.832,2.706,1.739,19.635,1.739,19.635
	c0.002,0.257,0.005,0.515,0.005,0.769c-1.272,1.432-1.851,3.027-1.699,4.754c0.123,1.387,0.701,2.701,1.451,3.867
	c-0.051,0.908-0.105,1.736-0.156,2.471c-0.061-0.004-0.125-0.01-0.182-0.01l0.001-0.002C4.423,283.188,3.566,283.729,3.981,284.414
	 M6.846,239.997c-0.641-1.549-0.945-4.838-0.945-4.838l0.022-0.279l0.414-0.127c0.967-0.302,3.723-1.508,3.723-3.062v-0.646h40.877
	v0.646c0,1.554,2.758,2.76,3.727,3.062l0.41,0.127l0.025,0.279c0,0-0.306,3.289-0.947,4.838l-0.287-4.153
	c-1.066-0.393-3.66-1.531-4.141-3.508H11.274c-0.479,1.977-3.073,3.115-4.14,3.508L6.846,239.997z M54.924,251.158
	c0.33,0.303,0.629,0.535,0.84,0.686c-0.59,2.139-1.061,7.752-1.414,11.477C54.316,260.376,54.408,254.646,54.924,251.158
	 M49.639,286.136c1.553-0.933,3.146-1.646,4.553-1.813c0.063,0.758,0.117,1.379,0.158,1.813H49.639z M54.053,282.423
	c0.023,0.341,0.047,0.668,0.07,0.976c-0.389,0.047-0.781,0.117-1.186,0.228C53.301,283.268,53.68,282.861,54.053,282.423
	 M52.926,246.047c-0.361,1.538,0.168,2.859,0.889,3.867c-1.084,6.092-0.028,27.822,0.109,30.347c0.5-0.639,0.957-1.668,1.205-2.284
	c-0.053-1.315-0.088-2.736-0.105-4.211c0.59,0.969,0.851,2.002,0.754,3.09c-0.108,1.258-0.661,2.472-1.377,3.556
	c-0.037,0.055-0.067,0.103-0.102,0.149c-0.098,0.142-0.197,0.282-0.299,0.42l-0.035,0.047v0.002
	c-1.576,2.115-3.623,3.611-3.777,3.722c-0.774,0.408-1.545,0.887-2.291,1.386h-0.012l-0.166,0.118
	c-0.52,0.356-1.023,0.722-1.508,1.087l-0.117,0.086H46.1c0,0-0.66,0.479-0.748,1.284c0,0,0.558-0.91,2.045-1.284h0.287h1.213h0.49
	c-2.297,1.381-3.359,3.204-3.359,3.204c0.675,0.295,1.183,1.037,1.183,1.037c-0.448-1.468,0.795-2.636,2.086-3.42
	c0.113-0.05,2.017-0.907,3.623-0.821h2.863l-0.078-0.716c-0.004-0.049-0.101-0.968-0.218-2.487c0.187-0.002,0.371,0.002,0.556,0.018
	l0,0c0.088,0.008,0.17,0.023,0.252,0.037c0.11,0.045,0.199,0.135,0.088,0.332c-0.221,0.392-0.487,0.563-0.487,0.563
	s0.709-0.073,1.125-0.759s-0.441-1.229-1.42-1.146v0.002c-0.054,0-0.119,0.006-0.181,0.008c-0.053-0.732-0.104-1.562-0.155-2.469
	c0.748-1.168,1.327-2.481,1.45-3.867c0.149-1.728-0.426-3.323-1.698-4.756c0-0.252,0.002-0.511,0.004-0.768
	c0,0,0.908-16.93,1.737-19.635l0.109-0.344l-0.312-0.193c-0.014-0.008-0.736-0.467-1.445-1.223c0,0-0.746-0.668-1.021-1.475
	c-0.307-0.658-0.461-1.402-0.272-2.21c0.031-0.071,0.379-0.892,0.731-1.948l0.168,1.875c-0.174,0.518-0.323,1.07-0.465,1.639
	c0.194,0.4,0.565,1.039,1.024,1.33c0.197-0.949,0.422-1.863,0.705-2.68l0.045-0.131l-0.811-9.054
	c0.01,1.354-0.912,4.293-0.912,4.293C53.998,243.514,52.961,245.953,52.926,246.047 M19.669,287.427L19.669,287.427
	c-0.182-0.202-0.354-0.407-0.514-0.618c-0.016-0.022-0.03-0.045-0.047-0.067c-0.146-0.197-0.283-0.396-0.406-0.603
	c-0.612-1.027-0.957-2.148-0.957-3.326c0-4.845,5.722-8.785,12.755-8.785c7.029,0,12.753,3.94,12.753,8.785
	c0,1.178-0.344,2.301-0.955,3.328c-0.125,0.205-0.262,0.402-0.407,0.601c-0.017,0.022-0.029,0.044-0.048,0.067
	c-0.159,0.211-0.331,0.416-0.512,0.619c-2.252,2.495-6.261,4.168-10.831,4.168C25.927,291.596,21.921,289.923,19.669,287.427
	 M43.109,287.427h1.49c-1.148,0.952-1.398,2.089-1.398,2.089c0.41,0.034,1.113,0.394,1.113,0.394
	c-0.586-1.368,1.037-2.481,1.037-2.481l1.633-1.291h-1.521c0.345-1.02,0.521-1.931,0.58-2.734c0.539,0.736,1.69,1.845,3.422,1.181
	c-0.394,0.113-2.002,0.349-3.446-2.687l-0.006,0.016c-0.289-2.405-1.656-3.497-1.656-3.497c1.42,2.79,1.092,5.269,0.631,6.765
	c-0.01,0.012-0.297,0.408-0.879,0.42c0.354-0.889,0.551-1.818,0.551-2.785c0-5.619-6.354-10.192-14.159-10.192
	c-7.811,0-14.162,4.573-14.162,10.192c0,0.967,0.2,1.896,0.549,2.785c-0.58-0.012-0.868-0.408-0.876-0.42
	c-0.462-1.496-0.79-3.975,0.63-6.765c0,0-1.369,1.092-1.657,3.497l-0.005-0.016c-1.446,3.033-3.055,2.8-3.448,2.687
	c1.729,0.664,2.884-0.442,3.425-1.181c0.056,0.805,0.234,1.716,0.579,2.734h-1.522l1.621,1.28l-0.011,0.011
	c0,0,1.624,1.113,1.038,2.481c0,0,0.703-0.358,1.113-0.394c0,0-0.251-1.137-1.398-2.089h1.512c0.556,0.78,1.245,1.503,2.05,2.15
	c-3.82,0.383-5.859,2.442-5.859,2.442c3.402-0.938,4.927,0,4.927,0c-0.156-0.779-1.017-0.938-1.017-0.938
	c0.078-1.092,2.703-0.377,2.703-0.377l0.004-0.006c0.805,0.199,1.891,0.633,2.531,1.601l5.188,0.595l-0.041-0.02
	c0.694,0.076,1.401,0.128,2.126,0.128c0.724,0,1.429-0.052,2.126-0.128l-0.043,0.02l5.188-0.595
	c0.636-0.959,1.707-1.394,2.513-1.595c0,0,2.625-0.715,2.702,0.377c0,0-0.86,0.158-1.018,0.938c0,0,1.525-0.938,4.926,0
	c0,0-2.028-2.053-5.836-2.44C41.863,288.932,42.555,288.209,43.109,287.427"/>
<path fill="#FFFFFF" d="M4.632,323.107c0,0,2.231,11.25,1.5,21.5c0,0-3.125,3.125,0.25,8.187l-0.28,5.474h24.396h24.396
	l-0.281-5.474c3.375-5.062,0.25-8.187,0.25-8.187c-0.729-10.25,1.5-21.5,1.5-21.5l-1.438-1.063c0.313-0.563,1.1-4.029,1.1-4.029
	l-0.953-11.545c-2.854,1.178-4.692-3.14-4.692-3.14H30.499H10.616c0,0-1.839,4.315-4.693,3.14l-0.951,11.545
	c0,0,0.785,3.467,1.097,4.029L4.632,323.107z"/>
<path fill="#FFFFFF" d="M30.499,346.164c6.731,0,12.208,3.693,12.208,8.236s-5.477,8.242-12.208,8.242
	c-6.73,0-12.208-3.699-12.208-8.242S23.769,346.164,30.499,346.164"/>
<path fill="#DEDFDF" d="M30.499,363.893c7.435,0,13.458-4.25,13.458-9.49c0-5.238-6.023-9.488-13.458-9.488
	c-7.433,0-13.458,4.25-13.458,9.488C17.042,359.643,23.066,363.893,30.499,363.893 M30.499,361.393
	c-5.938,0-10.957-3.201-10.957-6.99c0-3.787,5.019-6.988,10.957-6.988c5.938,0,10.958,3.201,10.958,6.988
	C41.457,358.191,36.438,361.393,30.499,361.393"/>
<path d="M54.924,322.749c0.328,0.302,0.629,0.536,0.84,0.687c-0.59,2.138-1.061,7.754-1.414,11.476
	C54.316,331.966,54.408,326.236,54.924,322.749 M49.639,357.729c1.553-0.935,3.146-1.648,4.555-1.816
	c0.06,0.761,0.115,1.382,0.156,1.816H49.639z M54.053,354.016c0.023,0.338,0.047,0.668,0.068,0.978
	c-0.387,0.043-0.781,0.114-1.184,0.225C53.301,354.857,53.68,354.452,54.053,354.016 M52.928,317.639
	c-0.363,1.538,0.166,2.858,0.887,3.867c-1.084,6.09-0.028,27.82,0.107,30.346c0.502-0.638,0.959-1.67,1.205-2.283
	c-0.051-1.316-0.086-2.738-0.104-4.213c0.592,0.972,0.848,2.002,0.754,3.092c-0.111,1.256-0.662,2.47-1.377,3.555
	c-0.035,0.055-0.068,0.102-0.103,0.15c-0.098,0.141-0.196,0.281-0.299,0.421c-0.021,0.028-0.035,0.046-0.035,0.046v0.001
	c-1.577,2.116-3.623,3.61-3.774,3.724c-0.777,0.408-1.547,0.887-2.291,1.385h-0.015l-0.166,0.119
	c-0.521,0.355-1.021,0.719-1.508,1.088l-0.117,0.084H46.1c0,0-1.162,0.828-0.395,1.711c0,0-0.221-0.941,1.703-1.711h0.275h1.213
	h6.885l-0.078-0.715c-0.004-0.051-0.1-0.969-0.215-2.488c0.182-0.002,0.369,0.002,0.551,0.017l0,0
	c0.088,0.009,0.17,0.022,0.252,0.037c0.115,0.044,0.201,0.137,0.09,0.334c-0.221,0.392-0.49,0.562-0.49,0.562
	s0.711-0.072,1.127-0.759c0.416-0.684-0.44-1.227-1.42-1.147v0.002c-0.055,0-0.119,0.009-0.182,0.01
	c-0.051-0.732-0.105-1.561-0.154-2.471c0.748-1.168,1.326-2.479,1.449-3.866c0.152-1.726-0.426-3.322-1.697-4.754
	c0-0.255,0.002-0.513,0.004-0.771c0,0,0.906-16.929,1.738-19.634l0.109-0.346l-0.311-0.189c-0.015-0.011-0.734-0.469-1.445-1.227
	c0,0-0.744-0.667-1.023-1.472c-0.305-0.658-0.459-1.403-0.271-2.211c0.031-0.072,0.379-0.893,0.732-1.949l0.168,1.875
	c-0.176,0.52-0.326,1.072-0.467,1.639c0.199,0.402,0.568,1.041,1.029,1.333c0.195-0.951,0.42-1.863,0.703-2.681l0.045-0.131
	l-0.813-9.055c0.013,1.354-0.909,4.294-0.909,4.294C53.998,315.105,52.959,317.546,52.928,317.639"/>
<path d="M7.133,307.434c1.067-0.391,3.66-1.531,4.141-3.508h38.453c0.479,1.977,3.071,3.117,4.139,3.508l0.289,4.153
	c0.641-1.549,0.943-4.838,0.943-4.838l-0.023-0.276l-0.412-0.13c-0.967-0.301-3.723-1.507-3.723-3.063v-0.646H10.061v0.646
	c0,1.557-2.756,2.763-3.724,3.063l-0.413,0.13L5.9,306.749c0,0,0.304,3.289,0.945,4.838L7.133,307.434z"/>
<path d="M5.235,323.436c0.21-0.151,0.512-0.385,0.84-0.686c0.514,3.484,0.608,9.216,0.575,12.159
	C6.295,331.188,5.825,325.57,5.235,323.436 M6.808,355.911c1.409,0.168,3.001,0.884,4.553,1.815H6.649
	C6.69,357.294,6.747,356.672,6.808,355.911 M6.945,354.016c0.373,0.437,0.753,0.844,1.117,1.201
	c-0.404-0.107-0.797-0.183-1.185-0.228C6.9,354.684,6.923,354.354,6.945,354.016 M3.981,356.005
	c0.417,0.687,1.126,0.759,1.126,0.759s-0.27-0.17-0.49-0.563c-0.11-0.195-0.024-0.287,0.09-0.332
	c0.083-0.014,0.164-0.028,0.252-0.036H4.96c0.181-0.015,0.368-0.021,0.552-0.019c-0.117,1.521-0.212,2.439-0.218,2.488l-0.076,0.715
	h6.867h1.231h0.274c1.925,0.771,1.703,1.711,1.703,1.711c0.769-0.881-0.394-1.711-0.394-1.711h0.007l-0.117-0.084
	c-0.486-0.367-0.989-0.733-1.51-1.086l-0.165-0.119h-0.011c-0.746-0.5-1.516-0.977-2.293-1.386
	c-0.154-0.112-2.199-1.608-3.776-3.724v-0.002c0,0-0.013-0.016-0.035-0.047c-0.102-0.139-0.202-0.277-0.298-0.42
	c-0.033-0.049-0.065-0.096-0.102-0.148c-0.715-1.085-1.267-2.3-1.377-3.557c-0.095-1.088,0.163-2.123,0.753-3.09
	c-0.017,1.474-0.054,2.896-0.103,4.213c0.247,0.613,0.703,1.646,1.206,2.283c0.136-2.525,1.191-24.257,0.107-30.347
	c0.721-1.008,1.25-2.329,0.887-3.866c-0.033-0.094-1.07-2.533-1.376-4.384c0,0-0.923-2.94-0.911-4.293l-0.813,9.054l0.047,0.131
	c0.283,0.816,0.508,1.729,0.703,2.679c0.46-0.291,0.83-0.929,1.03-1.331c-0.143-0.565-0.292-1.118-0.469-1.639l0.169-1.875
	c0.354,1.059,0.702,1.877,0.733,1.948c0.187,0.808,0.033,1.554-0.273,2.212c-0.276,0.803-1.024,1.471-1.024,1.471
	c-0.709,0.759-1.43,1.217-1.445,1.228l-0.309,0.188l0.108,0.348c0.832,2.704,1.739,19.633,1.739,19.633
	c0.002,0.258,0.005,0.516,0.005,0.77c-1.274,1.434-1.852,3.029-1.699,4.754c0.123,1.389,0.701,2.699,1.45,3.867
	c-0.05,0.91-0.104,1.737-0.156,2.471c-0.06-0.004-0.124-0.01-0.181-0.01h0.001C4.422,354.777,3.566,355.32,3.981,356.005"/>
<path d="M44.023,360.622c-0.873-0.5-1.392-0.968-1.392-0.968l-0.012-0.01c0.174-0.205,0.338-0.412,0.487-0.627h1.416
	C44.266,359.38,43.975,359.957,44.023,360.622 M16.976,360.622c0.047-0.665-0.244-1.242-0.502-1.604h1.414
	c0.155,0.215,0.318,0.424,0.492,0.629l-0.015,0.008C18.365,359.654,17.849,360.122,16.976,360.622 M30.5,345.618
	c7.033,0,12.754,3.94,12.754,8.784c0,1.179-0.344,2.301-0.957,3.326c-0.123,0.207-0.26,0.405-0.406,0.601
	c-0.016,0.022-0.031,0.047-0.047,0.069c-0.16,0.211-0.332,0.418-0.512,0.619c-0.83,0.92-1.9,1.726-3.146,2.377
	c-0.047,0.024-0.094,0.051-0.141,0.073c-0.379,0.195-0.775,0.372-1.184,0.536c-0.037,0.016-0.07,0.034-0.107,0.043
	c-0.449,0.178-0.914,0.334-1.396,0.475c-0.026,0.008-0.059,0.014-0.088,0.021c-0.422,0.118-0.854,0.217-1.297,0.304
	c-0.135,0.027-0.272,0.051-0.412,0.072c-0.356,0.063-0.723,0.111-1.094,0.152c-0.145,0.015-0.289,0.033-0.434,0.048
	c-0.504,0.041-1.016,0.067-1.533,0.067c-0.52,0-1.03-0.026-1.53-0.067c-0.149-0.015-0.291-0.033-0.438-0.048
	c-0.37-0.04-0.734-0.09-1.096-0.152c-0.135-0.021-0.273-0.045-0.41-0.072c-0.442-0.087-0.876-0.186-1.297-0.304
	c-0.029-0.008-0.059-0.015-0.088-0.021c-0.48-0.141-0.946-0.297-1.397-0.475c-0.035-0.009-0.069-0.027-0.106-0.043
	c-0.408-0.164-0.801-0.341-1.183-0.536c-0.047-0.022-0.094-0.049-0.144-0.073c-1.243-0.651-2.313-1.457-3.143-2.377
	c-0.182-0.201-0.353-0.408-0.513-0.619c-0.017-0.022-0.031-0.045-0.047-0.067c-0.146-0.196-0.283-0.396-0.406-0.603
	c-0.613-1.025-0.957-2.147-0.957-3.326C17.746,349.561,23.468,345.618,30.5,345.618 M45.074,361.143
	c-0.068-0.056-1.027-0.877,0.277-2.125l1.633-1.289h-1.521c0.345-1.021,0.522-1.932,0.578-2.735
	c0.541,0.735,1.694,1.844,3.426,1.181c-0.393,0.112-2.004,0.348-3.45-2.688l-0.004,0.015c-0.289-2.401-1.654-3.496-1.654-3.496
	c1.418,2.791,1.09,5.269,0.629,6.765c-0.01,0.01-0.297,0.41-0.877,0.42c0.352-0.887,0.551-1.819,0.551-2.785
	c0-5.62-6.355-10.192-14.162-10.192c-7.809,0-14.161,4.572-14.161,10.192c0,0.966,0.199,1.898,0.549,2.785
	c-0.581-0.01-0.869-0.409-0.876-0.42c-0.461-1.496-0.79-3.974,0.629-6.765c0,0-1.368,1.095-1.657,3.496l-0.004-0.015
	c-1.447,3.033-3.054,2.8-3.449,2.688c1.731,0.663,2.885-0.443,3.426-1.181c0.055,0.805,0.234,1.716,0.578,2.735h-1.522l1.633,1.289
	c1.307,1.248,0.348,2.069,0.282,2.125c-1.602,0.681-3.842,1.116-6.284,0.006c0,0,0.977,1.445,2.463,1.838
	c0,0,2.335-0.851,3.559-0.549c0,0,2.034-2.58,3.949-1.522c0.097,0.083,0.203,0.159,0.306,0.239c0.024,0.02,0.049,0.039,0.075,0.06
	c-3.945,0.541-3.657,3.271-3.657,3.271c0.397-1.197,1.985-1.068,1.985-1.068c0.351-1.32,2.367-1.122,2.39-1.118
	c0.198,0.052,0.416,0.114,0.637,0.197c0.062,0.024,0.123,0.059,0.185,0.084c0.164,0.069,0.329,0.137,0.492,0.229
	c0.127,0.07,0.241,0.168,0.362,0.254c0.097,0.068,0.199,0.123,0.287,0.201c0.203,0.18,0.392,0.387,0.551,0.629l5.188,0.592
	l-0.041-0.018c0.005,0.003,0.007,0.003,0.011,0.003c0.317,0.034,0.638,0.066,0.963,0.085c0.379,0.025,0.764,0.041,1.151,0.041
	s0.771-0.016,1.15-0.041c0.324-0.019,0.645-0.051,0.965-0.085c0.004,0,0.006,0,0.01-0.003l-0.041,0.018l5.186-0.592
	c0.64-0.959,1.709-1.394,2.515-1.596c0,0,2.041-0.211,2.394,1.118c0,0,1.586-0.129,1.985,1.069c0,0,0.287-2.729-3.658-3.271
	c0.024-0.02,0.05-0.04,0.076-0.061c0.101-0.079,0.209-0.155,0.306-0.238c1.916-1.057,3.948,1.523,3.948,1.523
	c1.224-0.303,3.56,0.549,3.56,0.549c1.485-0.394,2.463-1.84,2.463-1.84C48.914,362.259,46.674,361.822,45.074,361.143"/>
<path fill="#FFFFFF" d="M4.633,394.464c0,0,2.231,11.25,1.5,21.5c0,0-3.125,3.125,0.25,8.188l-0.28,5.471H30.5h24.396l-0.281-5.471
	c3.375-5.063,0.25-8.188,0.25-8.188c-0.73-10.25,1.5-21.5,1.5-21.5l-1.436-1.062c0.311-0.563,1.098-4.03,1.098-4.03l-0.953-11.545
	c-2.852,1.178-4.691-3.14-4.691-3.14H30.5H10.617c0,0-1.839,4.316-4.693,3.14l-0.951,11.545c0,0,0.785,3.467,1.097,4.03
	L4.633,394.464z"/>
<path fill="#FFFFFF" d="M30.5,417.52c6.73,0,12.207,3.695,12.207,8.238s-5.477,8.24-12.207,8.24c-6.731,0-12.208-3.697-12.208-8.24
	S23.769,417.52,30.5,417.52"/>
<path fill="#DEDFDF" d="M30.5,435.248c7.434,0,13.457-4.249,13.457-9.489c0-5.239-6.023-9.489-13.457-9.489
	c-7.433,0-13.458,4.25-13.458,9.489C17.042,430.999,23.067,435.248,30.5,435.248 M30.5,432.748c-5.938,0-10.958-3.2-10.958-6.989
	c0-3.788,5.02-6.989,10.958-6.989c5.938,0,10.957,3.201,10.957,6.989C41.457,429.548,36.438,432.748,30.5,432.748"/>
<path d="M5.235,394.789c0.211-0.148,0.511-0.383,0.84-0.684c0.514,3.486,0.607,9.215,0.575,12.162
	C6.296,402.545,5.827,396.93,5.235,394.789 M6.807,427.27c1.409,0.166,3.002,0.881,4.554,1.813H6.649
	C6.69,428.648,6.747,428.027,6.807,427.27 M6.945,425.37c0.374,0.439,0.754,0.844,1.117,1.202c-0.404-0.108-0.798-0.18-1.185-0.229
	C6.899,426.038,6.922,425.71,6.945,425.37 M3.981,427.36c0.416,0.687,1.126,0.759,1.126,0.759s-0.27-0.171-0.49-0.563
	c-0.111-0.196-0.024-0.288,0.09-0.33c0.082-0.017,0.164-0.031,0.25-0.04h0.002c0.182-0.015,0.37-0.019,0.552-0.017
	c-0.117,1.521-0.212,2.438-0.217,2.487l-0.076,0.715h6.867h1.231h0.065c0.614,0.417,1.425,1.188,1.389,2.351
	c0,0,0.176,0.738,0.704,0.563c0.464-0.154,1.049-1.483-0.571-2.912h0.002l-0.016-0.01c-0.223-0.196-0.482-0.393-0.794-0.59
	l-0.016,0.004c-0.267-0.191-0.525-0.388-0.8-0.575l-0.165-0.119h-0.012c-0.746-0.501-1.515-0.978-2.292-1.386
	c-0.153-0.11-2.199-1.605-3.776-3.721v-0.001c0,0-0.014-0.02-0.035-0.049c-0.102-0.14-0.202-0.278-0.299-0.421
	c-0.034-0.049-0.065-0.097-0.101-0.148c-0.716-1.085-1.267-2.297-1.377-3.555c-0.095-1.09,0.162-2.123,0.753-3.094
	c-0.018,1.477-0.053,2.896-0.104,4.215c0.247,0.612,0.704,1.646,1.206,2.282c0.136-2.524,1.191-24.256,0.108-30.347
	c0.72-1.008,1.249-2.329,0.888-3.866c-0.033-0.095-1.072-2.532-1.378-4.384c0,0-0.921-2.939-0.91-4.293l-0.812,9.055l0.045,0.131
	c0.284,0.816,0.508,1.729,0.705,2.68c0.46-0.289,0.829-0.93,1.027-1.33c-0.14-0.567-0.292-1.121-0.466-1.64l0.168-1.875
	c0.353,1.058,0.702,1.877,0.733,1.947c0.187,0.808,0.033,1.554-0.273,2.211c-0.277,0.806-1.023,1.473-1.023,1.473
	c-0.709,0.759-1.432,1.218-1.446,1.226l-0.31,0.19l0.109,0.347c0.832,2.705,1.738,19.633,1.738,19.633
	c0.002,0.257,0.005,0.517,0.005,0.77c-1.273,1.434-1.85,3.028-1.697,4.756c0.123,1.385,0.701,2.698,1.449,3.866
	c-0.05,0.908-0.105,1.736-0.155,2.473c-0.062-0.006-0.126-0.012-0.183-0.012l0.002-0.002C4.422,426.135,3.565,426.678,3.981,427.36
	 M6.847,382.943c-0.642-1.549-0.946-4.838-0.946-4.838l0.024-0.278l0.412-0.13c0.968-0.299,3.725-1.506,3.725-3.062v-0.646h40.877
	v0.646c0,1.556,2.756,2.763,3.724,3.062l0.414,0.13l0.022,0.278c0,0-0.307,3.289-0.945,4.838l-0.288-4.154
	c-1.068-0.391-3.66-1.531-4.142-3.508h-38.45c-0.481,1.977-3.074,3.117-4.141,3.508L6.847,382.943z M54.924,394.105
	c0.328,0.301,0.631,0.533,0.84,0.684c-0.59,2.141-1.061,7.756-1.414,11.479C54.316,403.32,54.41,397.593,54.924,394.105
	 M49.639,429.083c1.553-0.934,3.146-1.647,4.555-1.813c0.06,0.758,0.115,1.379,0.156,1.813H49.639z M54.055,425.37
	c0.021,0.34,0.045,0.668,0.068,0.975c-0.389,0.049-0.783,0.119-1.186,0.229C53.301,426.214,53.682,425.811,54.055,425.37
	 M52.928,388.994c-0.363,1.537,0.166,2.859,0.887,3.867c-1.084,6.09-0.028,27.82,0.107,30.346c0.502-0.638,0.959-1.67,1.207-2.282
	c-0.051-1.317-0.088-2.739-0.105-4.215c0.59,0.972,0.851,2.004,0.754,3.093c-0.11,1.258-0.661,2.471-1.377,3.556
	c-0.037,0.053-0.067,0.101-0.102,0.148c-0.098,0.143-0.197,0.281-0.299,0.421l-0.035,0.049v0.001
	c-1.576,2.114-3.621,3.609-3.775,3.721c-0.776,0.408-1.545,0.885-2.293,1.386h-0.012l-0.164,0.119
	c-0.275,0.188-0.533,0.384-0.801,0.575l-0.014-0.004c-0.303,0.191-0.555,0.382-0.773,0.57l-0.039,0.028h0.004
	c-1.619,1.429-1.033,2.758-0.568,2.912c0.527,0.177,0.703-0.563,0.703-0.563c-0.037-1.161,0.775-1.934,1.39-2.351h0.063h1.213h6.885
	l-0.076-0.715c-0.006-0.049-0.1-0.967-0.219-2.487c0.184-0.002,0.371,0.002,0.553,0.017h0.002c0.088,0.009,0.168,0.023,0.25,0.04
	c0.115,0.042,0.201,0.134,0.09,0.33c-0.219,0.392-0.488,0.563-0.488,0.563s0.709-0.072,1.125-0.759
	c0.416-0.684-0.438-1.227-1.42-1.146l0.002,0.002c-0.057,0-0.121,0.006-0.184,0.012c-0.049-0.735-0.104-1.563-0.154-2.473
	c0.75-1.168,1.326-2.481,1.449-3.866c0.154-1.728-0.424-3.322-1.697-4.756c0-0.253,0.002-0.513,0.004-0.77
	c0,0,0.908-16.928,1.74-19.633l0.109-0.347l-0.311-0.19c-0.017-0.008-0.736-0.467-1.445-1.226c0,0-0.748-0.667-1.025-1.473
	c-0.305-0.657-0.459-1.403-0.271-2.211c0.031-0.07,0.379-0.892,0.732-1.947l0.168,1.875c-0.176,0.519-0.324,1.071-0.467,1.64
	c0.199,0.4,0.568,1.041,1.029,1.33c0.195-0.949,0.42-1.863,0.703-2.68l0.047-0.131l-0.814-9.055c0.014,1.354-0.91,4.293-0.91,4.293
	C53.998,386.462,52.959,388.9,52.928,388.994 M30.499,434.544c-4.571,0-8.58-1.675-10.832-4.171c-0.18-0.2-0.352-0.407-0.512-0.618
	c-0.017-0.021-0.031-0.047-0.046-0.068c-0.147-0.195-0.284-0.395-0.407-0.601c-0.614-1.028-0.957-2.15-0.957-3.327
	c0-4.844,5.722-8.782,12.753-8.782s12.753,3.938,12.753,8.782c0,1.177-0.342,2.302-0.955,3.327c-0.123,0.206-0.26,0.404-0.405,0.601
	c-0.019,0.021-0.029,0.047-0.048,0.068c-0.159,0.211-0.331,0.418-0.512,0.618C39.08,432.869,35.072,434.544,30.499,434.544
	 M45.354,430.373l1.633-1.29h-1.522c0.347-1.02,0.524-1.93,0.58-2.736c0.541,0.736,1.694,1.847,3.427,1.184
	c-0.396,0.113-2.005,0.347-3.449-2.688l-0.004,0.015c-0.289-2.404-1.658-3.496-1.658-3.496c1.42,2.791,1.092,5.268,0.631,6.763
	c-0.008,0.012-0.297,0.41-0.877,0.421c0.35-0.888,0.549-1.817,0.549-2.785c0-5.621-6.354-10.191-14.161-10.191
	c-7.807,0-14.162,4.57-14.162,10.191c0,0.968,0.201,1.897,0.552,2.785c-0.582-0.011-0.869-0.409-0.878-0.421
	c-0.462-1.495-0.789-3.972,0.63-6.763c0,0-1.368,1.092-1.657,3.496l-0.004-0.015c-1.446,3.033-3.056,2.801-3.449,2.688
	c1.73,0.663,2.885-0.446,3.425-1.184c0.056,0.808,0.235,1.719,0.579,2.736h-1.522l1.634,1.29h0.003c0,0,1.793,1.229,1.394,3.646
	c0,0-0.28,0.796,0.424,0.911c0.662,0.107,1.454-1.433-0.694-4.558h1.115c0.316,0.445,0.675,0.871,1.074,1.275l-0.004,0.008
	c0,0,0.024,0.036,0.059,0.092c2.287,3.402,0.382,3.953,0.376,3.955c-0.196,0.062-0.269,0.291-0.167,0.456
	c0.357,0.581,2.557,0.355,1.619-2.467c0.787,0.214,1.777,0.645,2.382,1.555l5.188,0.593l-0.043-0.018
	c0.695,0.074,1.402,0.128,2.125,0.128c0.727,0,1.432-0.054,2.126-0.128l-0.043,0.018l5.188-0.593
	c0.605-0.91,1.597-1.343,2.386-1.558c-0.938,2.825,1.26,3.053,1.618,2.47c0.101-0.165,0.029-0.396-0.168-0.456
	c-0.006-0.002-1.91-0.553,0.377-3.955c0.035-0.056,0.058-0.092,0.058-0.092l-0.004-0.011c0.397-0.401,0.756-0.827,1.071-1.272h1.119
	c-2.149,3.125-1.356,4.665-0.692,4.558c0.702-0.116,0.422-0.911,0.422-0.911C43.559,431.603,45.354,430.373,45.354,430.373"/>
</svg>
