<?xml version="1.0" encoding="utf-8"?>
<!-- Generator: Adobe Illustrator 16.0.0, SVG Export Plug-In . SVG Version: 6.00 Build 0)  -->
<!DOCTYPE svg PUBLIC "-//W3C//DTD SVG 1.1//EN" "http://www.w3.org/Graphics/SVG/1.1/DTD/svg11.dtd">
<svg version="1.1" id="Layer_1" xmlns="http://www.w3.org/2000/svg" xmlns:xlink="http://www.w3.org/1999/xlink" x="0px" y="0px"
	 width="250px" height="98px" viewBox="0 0 250 98" enable-background="new 0 0 250 98" xml:space="preserve">
<g>
	<path d="M230.363,49.531c-8.139,42.676-98.791,39.07-99.65,39.033c-22.059-1.284-80.603-9.682-86.515-32.813
		c-3.507-13.723,1.528-22.277,7.405-27.401c-0.288-0.579-0.443-1.465,0.13-2.671l0.96-2.02
		c-7.665,5.191-15.932,15.112-11.402,32.835c7.667,29.997,88.433,35.017,89.248,35.063c0.918,0.04,91.59,3.657,102.359-39.629
		L230.363,49.531z"/>
	<path d="M234.84,52.427c-4.615,18.45-23.775,31.378-55.6,37.454c-17.131,3.271-33.889,3.776-42.611,3.776
		c-3.84,0-6.121-0.098-6.193-0.101c-3.398-0.197-83.057-5.166-91.082-36.566c-4.903-19.184,4.623-29.868,12.958-35.328l-2.627-0.934
		c-0.325-0.116-0.585-0.255-0.819-0.402c-0.942,0.686-1.887,1.435-2.815,2.253c-6.92,6.101-14.203,17.152-9.603,35.153
		C40.137,72.17,57.3,83.089,87.461,90.188c21.637,5.093,41.935,6.313,42.837,6.364c0.592,0.027,3.146,0.132,7.107,0.131
		c22.91,0,92.775-3.494,100.814-45.654L234.84,52.427z"/>
</g>
<g>
	<g>
		<polygon fill="#FFFFFF" points="19.157,41.256 19.157,78.756 54.657,74.116 54.657,36.614 		"/>
	</g>
	<g>
		<path d="M18.469,79.538V40.651l36.875-4.819v38.889L18.469,79.538z M19.844,41.858v36.112l34.125-4.459V37.398L19.844,41.858z"/>
	</g>
	<g>
		<path d="M19.984,76.342L19.88,75.6l34.724-4.924l0.105,0.742L19.984,76.342z M19.98,44.137l-0.096-0.744l34.725-4.418l0.095,0.744
			L19.98,44.137z"/>
	</g>
	<g>
		<polygon fill="#C3C4C6" points="54.657,36.615 30.438,33.032 30.438,70.533 54.657,74.116 		"/>
	</g>
	<g>
		<path d="M55.344,74.913L29.75,71.127V32.236l25.594,3.787V74.913z M31.125,69.94l22.844,3.379v-36.11L31.125,33.83V69.94z"/>
	</g>
	<g>
		<path fill="#FFFFFF" d="M249.479,69.899c-61.754,11.25-157.287-11.25-219.041,0V32.398c61.754-11.25,157.287,11.251,219.041,0
			V69.899z"/>
	</g>
	<g>
		<path d="M206.438,73.834c-21.101,0-44.194-1.65-66.528-3.248c-22.312-1.597-45.382-3.246-66.435-3.246
			c-16.923,0-30.959,1.059-42.914,3.235l-0.812,0.147V31.824l0.563-0.104c12.037-2.192,26.154-3.259,43.162-3.259
			c21.1,0,44.194,1.652,66.528,3.249c22.312,1.596,45.381,3.246,66.435,3.246c16.924,0,30.961-1.059,42.916-3.236l0.811-0.147
			v38.897l-0.564,0.104C237.563,72.768,223.445,73.834,206.438,73.834z M73.477,65.965c21.101,0,44.195,1.651,66.53,3.25
			c22.312,1.596,45.382,3.244,66.433,3.244c16.658,0,30.52-1.025,42.352-3.135V33.22c-11.859,2.096-25.725,3.113-42.352,3.113
			c-21.103,0-44.197-1.652-66.531-3.25c-22.311-1.596-45.381-3.246-66.432-3.246c-16.658,0-30.52,1.025-42.352,3.135v36.104
			C42.984,66.982,56.85,65.965,73.477,65.965z"/>
	</g>
	<g>
		<path d="M205.602,70.575c-16.875,0-39.604-0.907-69.945-3.593c-65.616-5.809-98.777-0.879-104.76,0.169l-0.129-0.739
			c5.998-1.051,39.24-5.992,104.955-0.177c92.866,8.218,114.28-0.22,114.485-0.306l0.292,0.69
			C250.361,66.68,240.548,70.575,205.602,70.575z M207.754,39.153c-17.018,0-40.438-0.932-72.35-3.754
			c-65.605-5.807-98.775-0.879-104.758,0.169l-0.129-0.739c6-1.049,39.254-5.991,104.953-0.177
			c92.867,8.217,113.665,0.4,113.864,0.32l0.28,0.695C249.484,35.721,240.428,39.153,207.754,39.153z"/>
	</g>
</g>
<path d="M74.775,19.319c1.036-0.368,1.036-0.972,0-1.34l-3.97-1.412c-1.036-0.368-1.498-1.483-1.026-2.476l1.81-3.806
	c0.472-0.993,0.045-1.42-0.948-0.948l-3.806,1.81c-0.993,0.472-2.108,0.01-2.476-1.026l-1.412-3.97c-0.368-1.036-0.972-1.036-1.34,0
	l-1.412,3.97c-0.368,1.036-1.483,1.498-2.476,1.026l-3.806-1.81c-0.993-0.472-1.42-0.045-0.948,0.948l1.81,3.806
	c0.472,0.993,0.01,2.108-1.026,2.476l-3.97,1.412c-1.036,0.368-1.036,0.972,0,1.34l3.97,1.412c1.036,0.368,1.498,1.483,1.026,2.476
	l-1.81,3.806c-0.472,0.993-0.045,1.42,0.948,0.948l3.806-1.81c0.993-0.472,2.108-0.01,2.476,1.026l1.412,3.97
	c0.368,1.036,0.972,1.036,1.34,0l1.412-3.97c0.368-1.036,1.483-1.498,2.476-1.026l3.806,1.81c0.993,0.472,1.42,0.045,0.948-0.948
	l-1.81-3.806c-0.472-0.993-0.01-2.108,1.026-2.476L74.775,19.319z M62.276,21.962c-1.83,0-3.313-1.483-3.313-3.313
	s1.483-3.313,3.313-3.313s3.313,1.483,3.313,3.313S64.106,21.962,62.276,21.962z"/>
<path d="M212.661,76.286c9.944-5.738,17.561-13.598,20.237-24.356l-2.536-2.398c-2.337,12.252-11.479,20.684-23.341,26.486
	C208.783,75.966,210.673,76.037,212.661,76.286z"/>
<path d="M219.646,77.886c9.387-6.49,16.35-15.191,18.574-26.856l-3.382,1.397c-2.432,9.724-8.908,17.911-19.146,24.373
	C216.983,77.074,218.304,77.435,219.646,77.886z"/>
</svg>
