<?xml version="1.0" encoding="utf-8"?>
<!-- Generator: Adobe Illustrator 16.0.0, SVG Export Plug-In . SVG Version: 6.00 Build 0)  -->
<!DOCTYPE svg PUBLIC "-//W3C//DTD SVG 1.1//EN" "http://www.w3.org/Graphics/SVG/1.1/DTD/svg11.dtd">
<svg version="1.1" id="Layer_1" xmlns="http://www.w3.org/2000/svg" xmlns:xlink="http://www.w3.org/1999/xlink" x="0px" y="0px"
	 width="362px" height="98px" viewBox="0 0 362 98" enable-background="new 0 0 362 98" xml:space="preserve">
<g>
	<path fill="#FFFFFF" d="M318.354,31.448v38.143c14.568-0.086,16.463,0,18.947-3.229v-37.5
		C332.641,31.336,327.828,31.411,318.354,31.448"/>
	<path d="M317.666,70.282V30.764l0.686-0.003c9.715-0.038,14.197-0.154,18.627-2.506l1.01-0.536v38.877l-0.143,0.187
		c-2.617,3.4-4.701,3.412-18.256,3.488L317.666,70.282z M319.041,32.133v36.767l0.541-0.004c12.975-0.072,14.887-0.084,17.031-2.771
		V29.968C332.117,32.025,327.246,32.1,319.041,32.133"/>
	<path d="M326.203,67.356c-2.162,0-4.762-0.151-7.893-0.508l0.084-0.746c16.086,1.828,17.59-1.834,18.086-3.037
		c0.135-0.33,0.262-0.643,0.602-0.711l0.148,0.736c0.029-0.008-0.01,0.141-0.059,0.258
		C336.682,64.548,335.529,67.356,326.203,67.356 M317.75,34.658l-0.002-0.75c16.096-0.053,17.535-1.156,18.928-2.224l0.459,0.594
		C335.572,33.475,334.1,34.604,317.75,34.658"/>
	<rect x="2.732" y="18.679" fill="#FFFFFF" width="313.895" height="60.643"/>
	<path d="M317.252,79.946H2.107V18.054h315.145V79.946z M3.358,78.696h312.646V19.304H3.358V78.696z"/>
	<path fill="#FFFFFF" d="M0.626,12.372L0.625,85.63c1.048-2.516,2.098-3.564,2.098-3.564l0.001-66.129
		C2.724,15.937,1.674,14.891,0.626,12.372"/>
	<path d="M0,88.755L0.001,9.244l1.202,2.888c0.976,2.348,1.954,3.354,1.964,3.363l0.18,0.183l0.002,0.259L3.348,82.324l-0.183,0.183
		c-0.008,0.008-0.986,1.02-1.963,3.363L0,88.755z M1.251,14.987L1.25,83.017c0.362-0.586,0.666-0.975,0.848-1.19l0.001-65.651
		C1.917,15.961,1.613,15.572,1.251,14.987"/>
	<path d="M33.123,82.394h-22c-7.807,0-9.011-10.785-9.022-10.895l1.243-0.129c0.01,0.098,1.099,9.773,7.779,9.773h21.9
		c0.95-0.309,8.004-2.446,20.6-2.446v1.25c-13.053,0-20.228,2.388-20.299,2.413L33.123,82.394z M3.345,26.633l-1.243-0.129
		c0.011-0.108,1.215-10.893,9.023-10.893l22.201,0.033c0.07,0.023,7.246,2.411,20.297,2.411v1.25c-12.594,0-19.649-2.137-20.6-2.444
		H11.125C4.432,16.861,3.354,26.535,3.345,26.633"/>
	<path fill="#FFFFFF" d="M318.715,12.372V85.63c-1.047-2.516-2.098-3.564-2.098-3.564V15.937
		C316.617,15.937,317.666,14.891,318.715,12.372"/>
	<path d="M319.34,88.757l-1.201-2.887c-0.977-2.344-1.955-3.354-1.965-3.365l-0.18-0.182l-0.002-0.258V15.677l0.184-0.184
		c0.008-0.008,0.984-1.015,1.961-3.36l1.203-2.89V88.757z M317.242,81.827c0.182,0.215,0.486,0.604,0.848,1.188V14.987
		c-0.363,0.585-0.666,0.973-0.848,1.188V81.827z"/>
	<path d="M308.217,82.394l-22.201-0.033c-0.07-0.025-7.244-2.413-20.299-2.413v-1.25c12.596,0,19.65,2.138,20.602,2.446h21.898
		c6.693,0,7.77-9.676,7.779-9.771l1.244,0.127C317.229,71.608,316.025,82.394,308.217,82.394 M315.994,26.633
		c-0.01-0.098-1.098-9.771-7.777-9.771h-21.9c-0.951,0.308-8.004,2.444-20.6,2.444v-1.25c13.053,0,20.227-2.388,20.299-2.411
		l0.201-0.033h22c7.807,0,9.01,10.784,9.021,10.894L315.994,26.633z"/>
	<path d="M294.654,79.692c-5.314-0.928-11.461-1.918-17.143-1.918H41.828c-5.682,0-11.826,0.99-17.142,1.918l-0.129-0.738
		c5.347-0.934,11.53-1.93,17.271-1.93h235.684c5.742,0,11.926,0.996,17.271,1.93L294.654,79.692z M277.512,20.979H41.828
		c-5.732,0-11.92-0.996-17.271-1.928l0.129-0.739c5.319,0.928,11.47,1.917,17.142,1.917h235.684c5.674,0,11.822-0.989,17.143-1.917
		l0.129,0.739C289.434,19.983,283.244,20.979,277.512,20.979"/>
</g>
</svg>
