<?xml version="1.0" encoding="utf-8"?>
<!-- Generator: Adobe Illustrator 16.0.0, SVG Export Plug-In . SVG Version: 6.00 Build 0)  -->
<!DOCTYPE svg PUBLIC "-//W3C//DTD SVG 1.1//EN" "http://www.w3.org/Graphics/SVG/1.1/DTD/svg11.dtd">
<svg version="1.1" id="Layer_1" xmlns="http://www.w3.org/2000/svg" xmlns:xlink="http://www.w3.org/1999/xlink" x="0px" y="0px"
	 width="588px" height="98px" viewBox="0 0 588 98" enable-background="new 0 0 588 98" xml:space="preserve">
<g>
	<path fill="#DEDFDF" d="M338.057,30.553l22.286-1.666l-27.48-2.055l42.049-3.143l-37.447-2.801l51.877-3.877l-88.338-6.608
		l23.736-1.773l-43.338-3.242l-38.505,2.88l-17.318-2.255l42.488-3.174l-34.049-2.547l-23.73,1.773l-27.549-2.06l-25.751,1.927
		l26.164,1.958l-28.828,2.156L125.501,3.89l16.707-1.25l-19.961-1.493L58.43,5.917l22.614,1.691l-71.71,5.36l42.23,3.158
		l-22.286,1.666l27.479,2.055L14.711,22.99l37.444,2.802L0.278,29.668l71.294,5.333l-32.644,2.442l34.46,2.575l8.912-0.666
		l25.916,1.939l38.506-2.88l17.299,2.252l-44.872,3.356l61.598,4.604l13.47-1.006l-24.247-1.814l34.625-2.59l24.268,1.815
		l15.888-1.188l22.621,1.691l63.818-4.77l-22.611-1.691l71.709-5.359L338.057,30.553z M223.764,47.543l23.254,1.739l23.256-1.739
		l-23.256-1.74L223.764,47.543z M84.564,41.025l23.255,1.74l-23.255,1.739l-23.252-1.739L84.564,41.025z"/>
	<path fill="#DEDFDF" d="M389.201,82.781l18.103-1.354l-22.321-1.67l34.155-2.553l-30.419-2.275l42.141-3.148l-71.758-5.367
		l19.281-1.441L343.18,62.34l-31.277,2.338l-14.067-1.83l34.513-2.58l-27.659-2.068l-19.274,1.441l-22.379-1.674l-20.917,1.564
		l21.252,1.592l-23.416,1.75l-23.413-1.75l13.57-1.016l-16.214-1.213l-51.839,3.875l18.369,1.373l-58.251,4.355l34.305,2.564
		l-18.103,1.354l22.321,1.67l-34.155,2.551l30.417,2.277l-42.141,3.148l57.912,4.332l-26.516,1.984l27.992,2.092l7.239-0.541
		l21.052,1.574l31.277-2.34l14.053,1.83l-36.449,2.727l50.036,3.74l10.94-0.818l-19.695-1.473l28.126-2.105l19.713,1.475
		l12.905-0.963l18.376,1.373l51.84-3.875l-18.368-1.373l58.25-4.355L389.201,82.781z M296.36,96.582l18.89,1.414l18.891-1.414
		L315.25,95.17L296.36,96.582z M183.288,91.287l18.891,1.414l-18.891,1.412l-18.889-1.412L183.288,91.287z"/>
	<path fill="#DEDFDF" d="M553.364,36.777l14.93-1.116l-18.409-1.376l28.17-2.106l-25.087-1.877l34.754-2.597l-59.182-4.427
		l15.902-1.188l-29.034-2.172l-25.796,1.929l-11.602-1.51l28.465-2.127l-22.813-1.706l-15.896,1.188l-18.457-1.38l-17.252,1.291
		l17.528,1.312l-19.313,1.444l-19.31-1.444l11.192-0.838l-13.372-1l-42.755,3.196l15.15,1.133l-48.042,3.591l28.293,2.116
		l-14.932,1.116l18.409,1.376L336.74,31.71l25.086,1.877l-34.755,2.597l47.763,3.573l-21.868,1.636l23.086,1.725l5.97-0.446
		l17.363,1.299l25.796-1.93l11.59,1.509L406.708,45.8l41.269,3.084l9.022-0.674l-16.245-1.216l23.197-1.735l16.259,1.216
		l10.644-0.795l15.156,1.133l42.754-3.196l-15.148-1.133l48.041-3.591L553.364,36.777z M476.794,48.16l15.579,1.165l15.58-1.165
		l-15.58-1.166L476.794,48.16z M383.538,43.792l15.58,1.166l-15.58,1.164l-15.578-1.164L383.538,43.792z"/>
</g>
</svg>
